<?xml version="1.0" encoding="UTF-8" standalone="no"?>
<svg
   xmlns:dc="http://purl.org/dc/elements/1.1/"
   xmlns:cc="http://creativecommons.org/ns#"
   xmlns:rdf="http://www.w3.org/1999/02/22-rdf-syntax-ns#"
   xmlns:svg="http://www.w3.org/2000/svg"
   xmlns="http://www.w3.org/2000/svg"
   xmlns:sodipodi="http://sodipodi.sourceforge.net/DTD/sodipodi-0.dtd"
   xmlns:inkscape="http://www.inkscape.org/namespaces/inkscape"
   width="400mm"
   height="400mm"
   viewBox="0 0 400 400"
   version="1.1"
   id="svg446"
   inkscape:version="1.0.1 (3bc2e813f5, 2020-09-07)"
   sodipodi:docname="icone-logo-code-pmac.svg">
  <defs
     id="defs440" />
  <sodipodi:namedview
     id="base"
     pagecolor="#ffffff"
     bordercolor="#666666"
     borderopacity="1.0"
     inkscape:pageopacity="0.0"
     inkscape:pageshadow="2"
     inkscape:zoom="0.35"
     inkscape:cx="400"
     inkscape:cy="674.28571"
     inkscape:document-units="px"
     inkscape:current-layer="layer1"
     inkscape:document-rotation="0"
     showgrid="false"
     inkscape:window-width="1600"
     inkscape:window-height="837"
     inkscape:window-x="-8"
     inkscape:window-y="-8"
     inkscape:window-maximized="1" />
  <metadata
     id="metadata443">
    <rdf:RDF>
      <cc:Work
         rdf:about="">
        <dc:format>image/svg+xml</dc:format>
        <dc:type
           rdf:resource="http://purl.org/dc/dcmitype/StillImage" />
        <dc:title></dc:title>
      </cc:Work>
    </rdf:RDF>
  </metadata>
  <g
     inkscape:label="Layer 1"
     inkscape:groupmode="layer"
     id="layer1">
    <g
       id="g476"
       transform="translate(-6.0476154,8.3154764)">
      <g
         id="g2376"
         transform="matrix(3.2446894,0,0,-3.2446894,349.53839,149.29081)">
        <path
           d="m 0,0 c 0.038,0.682 -0.29,1.36 -0.919,1.729 l -16.322,11.365 c -0.898,0.525 -2.051,0.223 -2.575,-0.673 -0.526,-0.897 -0.225,-2.05 0.672,-2.575 L -4.291,-0.659 v -21.822 c 0,-0.689 -0.021,-1.373 -0.057,-2.052 h -21.168 c 0.024,-0.669 -0.015,-1.31 -0.109,-1.9 1.037,-1.037 1.68,-2.467 1.68,-4.046 v -2.405 c 0,-1.586 -0.593,-3.004 -1.603,-4.03 v -2.649 -0.787 c 0,-1.545 -1.253,-2.797 -2.799,-2.797 h -0.787 -13.423 V -60.68 c 0.022,0 0.044,-0.002 0.066,-0.002 -20.375,0 -37.073,16.036 -38.144,36.149 h 21.363 c 0.055,1.571 0.503,3.318 1.717,5.071 1.377,1.987 4.135,7.473 4.774,12.66 -1.44,1.04 -2.379,2.733 -2.379,4.641 v 0.267 c 0,0.755 0.147,1.477 0.414,2.137 -0.267,0.661 -0.414,1.382 -0.414,2.138 v 0.178 c 0,2.378 1.435,4.426 3.485,5.326 -0.073,1.893 -0.35,3.719 -0.81,5.467 h -13.856 l -0.037,-0.037 c -0.423,0.075 -0.872,0.013 -1.271,-0.221 L -83.971,1.729 c -0.254,-0.148 -0.454,-0.351 -0.607,-0.581 -0.259,-0.355 -0.416,-0.788 -0.416,-1.259 v -21.725 c 0,-23.323 18.521,-42.786 41.842,-43.143 23.737,-0.363 43.163,18.841 43.163,42.498 v 22.37 C 0.011,-0.073 0.002,-0.038 0,0"
           style="fill:#656263;fill-opacity:1;fill-rule:nonzero;stroke:none"
           id="path2378" />
      </g>
      <g
         id="g2380"
         transform="matrix(3.2446894,0,0,-3.2446894,183.3493,91.291927)">
        <path
           d="m 0,0 h 0.802 c 0.352,-0.559 0.702,-1.279 1.002,-2.21 0.233,-0.725 0.446,-1.496 0.631,-2.313 0.002,-0.012 0.004,-0.026 0.007,-0.038 0.08,-0.355 0.153,-0.721 0.221,-1.093 0.022,-0.118 0.041,-0.24 0.062,-0.36 0.048,-0.285 0.093,-0.576 0.134,-0.871 0.017,-0.125 0.036,-0.249 0.051,-0.375 0.052,-0.411 0.099,-0.827 0.134,-1.255 0,-0.006 10e-4,-0.014 10e-4,-0.014 0.035,-0.427 0.059,-0.86 0.076,-1.297 0.005,-0.133 0.008,-0.269 0.012,-0.403 0.009,-0.333 0.013,-0.669 0.011,-1.012 C 3.143,-11.38 3.143,-11.518 3.14,-11.658 3.132,-12.128 3.116,-12.604 3.086,-13.09 H 1.87 c -1.224,0 -2.226,-1.002 -2.226,-2.226 v -0.178 c 0,-1.181 0.957,-2.138 2.137,-2.138 -1.18,0 -2.137,-0.957 -2.137,-2.137 v -0.267 c 0,-1.181 0.957,-2.137 2.137,-2.137 h 0.37 c 0.158,-6.64 -3.521,-14.292 -5.539,-17.205 -0.163,-0.234 -0.297,-0.47 -0.418,-0.703 -0.03,-0.059 -0.058,-0.117 -0.086,-0.175 -0.099,-0.206 -0.184,-0.41 -0.255,-0.613 -0.009,-0.027 -0.02,-0.052 -0.028,-0.077 -0.167,-0.502 -0.253,-0.992 -0.282,-1.462 -0.11,-1.765 0.582,-3.23 0.907,-3.809 h -0.457 c -1.224,0 -2.226,-1.002 -2.226,-2.226 v -2.316 c 0,-0.995 0.801,-1.829 1.603,-2.066 v -1.814 c 0,-1.546 1.253,-2.799 2.798,-2.799 H 8.662 19.287 c 1.546,0 2.798,1.253 2.798,2.799 v 1.814 c 1.069,0.237 1.603,1.071 1.603,2.066 v 2.405 c 0,1.18 -0.957,2.137 -2.137,2.137 h -0.35 c 0.037,0.066 0.08,0.147 0.125,0.235 0.009,0.018 0.019,0.039 0.029,0.058 0.041,0.082 0.083,0.171 0.127,0.269 0.007,0.015 0.014,0.03 0.021,0.047 0.327,0.738 0.688,1.883 0.605,3.199 v 10e-4 c -0.059,0.953 -0.35,1.993 -1.068,3.03 -2.019,2.913 -5.742,10.566 -5.585,17.205 1.178,0.003 2.088,0.958 2.088,2.137 v 0.267 c 0,1.18 -0.957,2.137 -2.137,2.137 1.18,0 2.137,0.957 2.137,2.138 v 0.266 c 0,1.181 -0.957,2.138 -2.137,2.138 h -0.86 c -0.268,4.313 0.35,7.978 1.282,10.88 0.3,0.931 0.65,1.652 1.003,2.21 h 0.534 c 1.131,0 2.048,0.918 2.048,2.049 v 0.356 c 0,1.16 -0.925,2.103 -2.078,2.134 -0.57,3.537 -3.265,6.36 -6.737,7.119 v 3.303 h 1.754 c 0.801,0 1.451,0.649 1.451,1.451 v 1.105 c 0,0.801 -0.65,1.451 -1.451,1.451 h -1.754 v 1.755 c 0,0.801 -0.65,1.451 -1.452,1.451 H 8.042 C 7.24,22.174 6.59,21.524 6.59,20.723 V 18.968 H 4.836 c -0.802,0 -1.452,-0.65 -1.452,-1.451 v -1.105 c 0,-0.802 0.65,-1.451 1.452,-1.451 H 6.59 V 11.597 C 3.384,10.755 0.765,7.986 0.208,4.542 H 0 c -1.224,0 -2.226,-1.002 -2.226,-2.227 V 2.227 C -2.226,0.997 -1.229,0 0,0"
           style="fill:#656263;fill-opacity:1;fill-rule:nonzero;stroke:none"
           id="path2382" />
      </g>
    </g>
  </g>
</svg>
