<?xml version="1.0" standalone="no"?>
<!DOCTYPE svg PUBLIC "-//W3C//DTD SVG 20010904//EN"
 "http://www.w3.org/TR/2001/REC-SVG-20010904/DTD/svg10.dtd">
<svg version="1.0" xmlns="http://www.w3.org/2000/svg"
 width="3525.000000pt" height="1283.000000pt" viewBox="0 0 3525.000000 1283.000000"
 preserveAspectRatio="xMidYMid meet">

<g transform="translate(0.000000,1283.000000) scale(0.100000,-0.100000)"
fill="#000000" stroke="none">
<path d="M8065 12804 c-33 -8 -102 -35 -153 -60 -76 -37 -109 -61 -180 -130
l-87 -86 -1305 6 c-718 3 -1622 9 -2010 12 l-705 6 -480 -479 c-264 -263 -910
-904 -1435 -1423 -525 -519 -1118 -1107 -1317 -1305 l-361 -360 -6 -1420 c-3
-781 -9 -1917 -12 -2525 l-6 -1105 184 -185 c100 -102 606 -612 1122 -1135
517 -522 1152 -1164 1411 -1425 259 -261 553 -559 655 -662 l185 -187 2033
-11 2033 -11 82 -83 c93 -94 182 -151 302 -193 73 -25 92 -27 225 -27 133 0
152 2 225 27 249 87 434 288 491 534 23 98 20 260 -6 353 -60 212 -194 376
-385 470 -44 21 -109 47 -145 56 -88 24 -272 24 -360 0 -148 -40 -305 -141
-391 -252 l-44 -57 -1340 6 c-737 4 -1572 7 -1855 7 l-515 0 -205 208 c-113
114 -631 637 -1150 1162 -519 525 -1119 1131 -1333 1345 l-389 390 6 1680 c3
924 9 1910 12 2190 l6 510 391 390 c333 332 1801 1785 2502 2477 l210 208 385
-1 c212 0 1033 -4 1825 -9 l1440 -8 15 -24 c35 -55 164 -176 230 -216 300
-179 666 -130 909 123 136 143 202 306 202 505 0 209 -66 365 -216 516 -77 78
-105 98 -185 137 -52 26 -124 53 -160 61 -82 20 -264 19 -345 0z m336 -377
c186 -91 263 -311 175 -502 -65 -142 -240 -234 -392 -206 -126 24 -224 95
-277 201 -25 49 -27 64 -27 169 0 136 13 173 86 251 88 94 155 121 290 117 74
-2 100 -8 145 -30z m-6 -11345 c84 -40 139 -91 175 -166 53 -107 57 -227 11
-330 -30 -69 -111 -148 -184 -182 -54 -26 -73 -29 -157 -29 -82 0 -103 4 -152
27 -75 35 -148 104 -181 172 -24 50 -27 65 -27 168 0 128 16 177 83 254 38 43
130 98 193 114 67 16 169 4 239 -28z"/>
<path d="M7355 10566 c-118 -24 -220 -68 -313 -138 l-53 -39 -807 3 c-880 3
-918 2 -1242 -58 -1601 -294 -2868 -1539 -3185 -3129 -65 -325 -87 -612 -74
-965 32 -849 344 -1665 901 -2352 125 -155 415 -442 576 -570 564 -449 1218
-737 1903 -837 263 -39 348 -42 1142 -48 719 -5 787 -4 787 11 0 11 14 5 53
-24 67 -51 175 -104 257 -126 81 -22 272 -25 350 -5 349 87 590 409 567 756
-8 115 -28 189 -80 295 -33 69 -59 103 -132 176 -100 101 -178 151 -303 192
-67 22 -95 26 -212 26 -115 1 -146 -2 -210 -22 -105 -33 -176 -72 -263 -142
l-75 -60 -708 0 c-392 0 -758 4 -819 10 -720 65 -1353 367 -1851 881 -787 815
-1027 2017 -614 3077 356 914 1163 1592 2126 1787 259 53 344 58 899 51 281
-3 624 -9 762 -13 l253 -6 52 -40 c169 -126 397 -176 601 -131 93 20 236 90
311 151 174 143 278 383 262 608 -8 117 -25 179 -82 295 -39 79 -62 110 -133
180 -70 70 -103 94 -181 133 -52 26 -122 54 -155 62 -87 22 -227 27 -310 11z
m268 -376 c77 -29 158 -104 197 -184 83 -169 27 -374 -130 -476 -74 -47 -141
-64 -234 -58 -135 9 -251 88 -311 213 -26 53 -29 71 -30 155 0 84 3 102 29
157 30 65 105 147 164 177 95 49 211 55 315 16z m-24 -6829 c107 -33 180 -101
233 -216 35 -75 33 -208 -4 -288 -38 -80 -114 -158 -191 -193 -53 -25 -75 -29
-152 -29 -80 0 -97 3 -155 31 -84 40 -144 100 -182 180 -139 297 137 613 451
515z"/>
<path d="M9567 8159 c-165 -19 -316 -60 -454 -124 -242 -112 -474 -340 -626
-615 -98 -177 -180 -444 -213 -685 -20 -155 -24 -493 -6 -635 54 -424 190
-737 431 -992 254 -268 556 -405 961 -438 469 -38 897 104 1185 394 145 146
235 296 306 506 37 110 88 364 76 376 -4 4 -866 63 -933 64 -7 0 -15 -25 -19
-57 -19 -156 -83 -310 -162 -388 -158 -158 -458 -149 -609 18 -80 89 -125 216
-156 437 -20 146 -17 624 5 773 46 311 141 493 295 569 63 31 73 33 172 33 92
0 112 -3 160 -26 79 -37 163 -118 200 -192 40 -83 69 -204 78 -324 l7 -98 55
3 c30 1 232 14 449 27 216 14 409 25 428 25 l35 0 -7 68 c-20 199 -81 415
-162 576 -214 427 -548 650 -1055 705 -110 12 -338 12 -441 0z"/>
<path d="M27835 8159 c-419 -37 -761 -198 -990 -466 -171 -201 -315 -485 -380
-753 -51 -215 -60 -297 -60 -580 1 -294 16 -420 76 -623 138 -463 480 -837
902 -986 147 -52 264 -72 454 -78 413 -14 689 81 922 314 51 52 87 81 93 75
13 -13 106 -245 119 -298 l11 -44 254 0 254 0 0 950 0 950 -765 0 -765 0 0
-355 0 -355 285 0 c324 0 294 11 274 -95 -21 -115 -106 -233 -207 -288 -139
-76 -345 -77 -491 -2 -226 114 -316 339 -328 821 -18 672 128 1015 452 1065
192 30 369 -60 456 -233 31 -61 79 -215 79 -254 0 -12 5 -26 10 -29 9 -6 954
81 987 90 8 3 7 21 -4 72 -129 578 -503 961 -1046 1073 -177 36 -393 47 -592
29z"/>
<path d="M11430 6415 l0 -1705 520 0 520 0 0 660 0 660 400 0 400 0 0 -660 0
-660 520 0 520 0 0 1705 0 1705 -520 0 -520 0 0 -630 0 -630 -400 0 -400 0 0
630 0 630 -520 0 -520 0 0 -1705z"/>
<path d="M15466 8043 c-14 -43 -250 -804 -526 -1691 -275 -887 -503 -1619
-507 -1627 -4 -13 50 -15 419 -15 l425 0 100 333 99 332 469 0 468 0 93 -328
c51 -181 94 -331 97 -333 2 -2 242 -3 534 -2 l530 3 -503 1590 c-277 875 -520
1641 -539 1703 l-36 112 -549 0 -548 0 -26 -77z m618 -1416 c71 -259 131 -478
134 -484 3 -10 -56 -13 -273 -13 -259 0 -277 1 -273 18 47 173 274 952 278
952 3 0 63 -213 134 -473z"/>
<path d="M17790 6415 l0 -1705 515 0 515 0 0 1705 0 1705 -515 0 -515 0 0
-1705z"/>
<path d="M19232 6418 l3 -1703 418 -3 417 -2 0 880 c0 982 0 987 -65 1287 -4
15 16 -19 43 -77 177 -378 203 -422 767 -1323 l480 -767 423 0 422 0 0 1705 0
1705 -426 0 -427 0 6 -667 c3 -368 11 -720 17 -783 11 -113 46 -371 57 -420 3
-14 -35 54 -84 150 -115 225 -164 306 -658 1078 l-410 641 -493 1 -492 0 2
-1702z"/>
<path d="M22550 6420 l0 -1700 1190 0 1190 0 0 415 0 415 -675 0 -675 0 0
1285 0 1285 -515 0 -515 0 0 -1700z"/>
<path d="M25110 6420 l0 -1700 515 0 515 0 0 1700 0 1700 -515 0 -515 0 0
-1700z"/>
<path d="M29860 6420 l0 -1700 515 0 515 0 0 660 0 660 405 0 405 0 0 -660 0
-660 515 0 515 0 0 1700 0 1700 -515 0 -515 0 0 -630 0 -630 -405 0 -405 0 0
630 0 630 -515 0 -515 0 0 -1700z"/>
<path d="M32850 7715 l0 -405 353 -2 352 -3 3 -1292 2 -1293 490 0 490 0 0
1295 0 1295 350 0 350 0 0 405 0 405 -1195 0 -1195 0 0 -405z"/>
<path d="M5295 7870 c-468 -50 -874 -310 -1119 -717 l-37 -63 -515 0 -514 0 0
-675 0 -675 519 0 c507 0 520 0 526 -20 3 -10 29 -54 57 -97 214 -329 548
-556 938 -640 66 -14 130 -18 285 -18 225 0 279 8 455 65 226 73 405 184 575
355 218 218 353 474 411 780 26 136 24 377 -4 523 -119 601 -589 1063 -1187
1167 -107 18 -292 25 -390 15z m315 -736 c36 -8 108 -35 160 -61 80 -39 108
-59 185 -137 104 -104 162 -203 196 -333 26 -99 29 -259 5 -355 -45 -189 -175
-367 -340 -467 -204 -123 -491 -134 -703 -27 -250 125 -397 352 -410 631 -4
90 -1 126 16 197 64 269 268 480 531 548 94 24 267 26 360 4z"/>
<path d="M16135 4146 c-153 -49 -262 -154 -317 -307 l-23 -64 0 -810 c0 -756
1 -814 18 -870 46 -151 149 -259 303 -317 l59 -23 5570 0 5570 0 64 23 c134
48 218 124 280 252 l36 75 0 856 0 855 -38 78 c-51 101 -122 172 -223 223
l-78 38 -5590 2 c-4501 1 -5599 -1 -5631 -11z m6293 -426 c118 -22 214 -97
253 -198 18 -45 23 -84 27 -189 l4 -133 -126 0 -126 0 0 110 c0 160 -28 200
-141 200 -44 0 -55 -4 -84 -33 -45 -45 -47 -75 -43 -572 3 -374 5 -413 21
-443 24 -43 77 -66 134 -58 95 13 107 35 113 216 l5 145 124 3 123 3 -4 -163
c-6 -198 -17 -237 -98 -319 -79 -81 -140 -103 -290 -103 -97 0 -124 4 -174 23
-80 32 -156 107 -187 186 l-24 60 0 500 0 500 24 59 c28 69 88 139 146 169 83
43 214 58 323 37z m-2158 -120 l0 -110 -135 0 -135 0 0 -645 0 -645 -130 0
-130 0 0 645 0 645 -135 0 -135 0 0 110 0 110 400 0 400 0 0 -110z m1168 3
l-3 -108 -222 -3 -223 -2 0 -205 0 -205 175 0 175 0 0 -110 0 -110 -175 0
-175 0 0 -220 0 -220 223 -2 222 -3 3 -107 3 -108 -361 0 -360 0 0 755 0 755
360 0 361 0 -3 -107z m2042 -213 l0 -320 145 0 145 0 0 320 0 320 135 0 135 0
0 -755 0 -755 -135 0 -135 0 0 325 0 325 -145 0 -145 0 0 -325 0 -325 -135 0
-135 0 0 755 0 755 135 0 135 0 0 -320z"/>
</g>
</svg>
