<?xml version="1.0" standalone="no"?>
<!DOCTYPE svg PUBLIC "-//W3C//DTD SVG 20010904//EN"
 "http://www.w3.org/TR/2001/REC-SVG-20010904/DTD/svg10.dtd">
<svg version="1.0" xmlns="http://www.w3.org/2000/svg"
 width="898.000000pt" height="1284.000000pt" viewBox="0 0 898.000000 1284.000000"
 preserveAspectRatio="xMidYMid meet">

<g transform="translate(0.000000,1284.000000) scale(0.100000,-0.100000)"
fill="#000000" stroke="none">
<path d="M8141 12820 c-173 -24 -323 -103 -447 -237 l-51 -54 -1809 10 c-995
6 -1899 11 -2009 11 l-200 0 -275 -272 c-151 -150 -491 -486 -755 -748 -1021
-1011 -1470 -1455 -2006 -1986 l-556 -551 -12 -2064 c-6 -1135 -11 -2273 -11
-2529 l0 -465 173 -175 c279 -283 2000 -2024 2517 -2545 262 -264 563 -568
670 -677 l195 -196 2033 -10 2032 -10 66 -71 c154 -167 362 -252 584 -238 274
17 500 170 621 422 48 99 69 192 69 310 0 118 -21 211 -69 310 -121 251 -347
405 -621 422 -210 13 -406 -61 -556 -211 -39 -39 -77 -82 -85 -95 l-15 -24
-1858 10 -1859 10 -216 219 c-971 983 -2171 2195 -2484 2509 l-379 380 6 365
c3 201 8 1119 11 2040 3 921 8 1743 11 1827 l6 152 122 118 c201 195 1976
1953 2491 2466 l480 478 1740 -6 c957 -3 1782 -8 1832 -11 91 -6 93 -6 113
-39 11 -18 55 -66 99 -107 148 -142 317 -204 529 -196 203 9 345 71 487 213
93 93 135 161 178 282 25 73 31 108 35 204 5 141 -16 241 -80 369 -58 117
-187 247 -304 307 -139 72 -300 102 -443 83z m236 -381 c72 -27 164 -113 200
-187 25 -51 28 -68 28 -157 0 -88 -3 -107 -27 -157 -35 -76 -99 -143 -173
-181 -56 -30 -67 -32 -165 -32 -95 0 -111 3 -162 28 -72 35 -138 99 -175 168
-26 50 -28 62 -28 169 0 106 2 119 28 168 93 177 286 251 474 181z m-26
-11339 c287 -89 352 -469 113 -653 -182 -140 -460 -75 -561 132 -25 51 -28 66
-28 166 0 128 16 173 86 250 103 112 246 150 390 105z"/>
<path d="M7358 10570 c-107 -18 -230 -72 -314 -137 l-49 -38 -835 0 c-813 0
-839 -1 -995 -23 -277 -39 -506 -90 -735 -164 -1308 -422 -2310 -1498 -2640
-2833 -84 -339 -114 -593 -113 -965 1 -493 76 -924 239 -1362 295 -795 835
-1479 1534 -1942 190 -126 294 -185 492 -280 434 -209 903 -335 1393 -376 170
-14 1655 -13 1655 1 0 6 17 -3 38 -19 365 -289 910 -165 1112 253 89 185 101
379 33 569 -62 174 -203 332 -367 411 -125 60 -218 79 -359 73 -174 -8 -329
-70 -454 -182 l-51 -46 -693 0 c-679 0 -829 5 -1032 35 -490 72 -970 282
-1371 598 -129 102 -381 354 -476 477 -182 235 -347 531 -444 796 -61 163
-119 390 -148 575 -19 124 -22 183 -22 429 0 314 13 441 73 685 195 797 714
1472 1436 1868 286 157 630 272 964 322 209 31 358 34 1026 20 358 -8 668 -15
690 -15 32 0 53 -9 95 -41 206 -155 484 -191 722 -94 203 82 368 271 429 491
31 111 31 268 0 379 -61 218 -222 403 -426 488 -119 50 -279 68 -407 47z m287
-389 c132 -65 208 -188 208 -336 0 -148 -76 -271 -207 -335 -292 -144 -614
132 -521 447 64 214 318 323 520 224z m-2 -6835 c234 -114 285 -418 102 -601
-183 -183 -487 -132 -601 102 -39 80 -45 203 -14 286 39 105 111 179 216 223
51 21 71 24 150 21 74 -2 100 -8 147 -31z"/>
<path d="M5295 7874 c-238 -26 -476 -112 -676 -245 -161 -107 -355 -315 -449
-481 l-32 -58 -514 0 -514 0 0 -670 0 -670 510 0 510 0 66 -102 c159 -246 344
-414 590 -536 210 -104 413 -152 649 -152 241 0 443 48 658 157 237 121 422
287 567 508 171 263 252 581 230 896 -28 373 -182 698 -458 961 -201 191 -465
324 -739 374 -88 15 -322 26 -398 18z m336 -745 c128 -35 223 -92 324 -194
104 -103 161 -203 195 -339 24 -96 26 -240 5 -341 -42 -199 -190 -393 -375
-489 -119 -62 -198 -81 -345 -81 -108 0 -143 4 -205 23 -208 65 -360 194 -457
386 -50 99 -73 200 -73 318 0 129 21 221 77 338 39 81 59 107 137 185 124 123
252 189 421 216 74 12 212 1 296 -22z"/>
</g>
</svg>
