<?xml version="1.0" standalone="no"?>
<!DOCTYPE svg PUBLIC "-//W3C//DTD SVG 20010904//EN"
 "http://www.w3.org/TR/2001/REC-SVG-20010904/DTD/svg10.dtd">
<svg version="1.0" xmlns="http://www.w3.org/2000/svg"
 width="2700.000000pt" height="2321.000000pt" viewBox="0 0 2700.000000 2321.000000"
 preserveAspectRatio="xMidYMid meet">

<g transform="translate(0.000000,2321.000000) scale(0.100000,-0.100000)"
fill="#000000" stroke="none">
<path d="M6654 23199 c-197 -23 -403 -125 -549 -273 -133 -135 -217 -292 -256
-483 -19 -89 -19 -265 -17 -6945 l3 -6853 28 -90 c107 -342 355 -581 693 -667
l89 -23 6855 0 6855 0 89 23 c342 87 599 337 698 678 l23 79 0 6890 0 6890
-23 79 c-98 338 -351 586 -692 678 l-85 23 -6820 1 c-3751 1 -6852 -2 -6891
-7z"/>
<path d="M1360 6553 c-335 -33 -606 -149 -820 -350 -288 -271 -468 -662 -520
-1133 -14 -123 -14 -448 0 -575 49 -444 216 -802 495 -1063 242 -226 523 -343
902 -373 617 -50 1155 218 1402 700 78 152 135 342 156 523 l7 56 -73 6 c-130
11 -872 57 -874 54 -1 -2 -7 -37 -13 -79 -26 -176 -97 -324 -189 -394 -79 -60
-143 -79 -268 -80 -103 0 -114 2 -177 32 -75 35 -150 104 -191 173 -130 223
-156 952 -47 1348 55 201 166 337 309 379 80 23 199 14 274 -20 164 -75 258
-248 275 -507 l7 -105 45 2 c251 14 916 56 919 59 9 8 -23 216 -49 320 -84
333 -261 612 -497 786 -172 126 -412 210 -682 237 -96 10 -310 12 -391 4z"/>
<path d="M19595 6550 c-591 -50 -993 -325 -1246 -855 -261 -546 -267 -1317
-13 -1829 69 -139 150 -251 271 -376 214 -221 416 -335 714 -402 92 -20 130
-23 329 -23 181 0 241 4 308 18 240 53 411 146 565 306 38 39 71 71 74 71 8 0
65 -132 104 -240 l37 -105 251 -3 251 -2 0 950 0 950 -765 0 -765 0 0 -355 0
-355 285 0 285 0 0 -24 c0 -99 -47 -210 -121 -285 -182 -185 -521 -176 -718
19 -93 92 -149 237 -182 470 -21 143 -18 574 4 718 59 376 196 566 433 602 50
8 90 8 140 0 204 -32 328 -170 384 -427 10 -47 21 -87 24 -90 7 -7 978 88 989
97 10 9 -44 218 -83 316 -153 385 -429 653 -800 778 -208 69 -491 98 -755 76z"/>
<path d="M3182 4808 l3 -1703 518 -3 517 -2 0 660 0 660 400 0 400 0 2 -657 3
-658 518 -3 517 -2 0 1705 0 1705 -520 0 -520 0 0 -630 0 -630 -400 0 -400 0
0 630 0 630 -520 0 -520 0 2 -1702z"/>
<path d="M7225 6458 c-8 -29 -246 -795 -528 -1703 l-513 -1650 419 -3 c231 -1
422 0 424 2 3 2 38 116 79 253 41 136 86 285 100 331 l25 82 467 -2 467 -3 94
-332 94 -333 534 0 534 0 -7 23 c-4 12 -247 778 -540 1702 l-532 1680 -551 3
-550 2 -16 -52z m619 -1470 c69 -251 126 -459 126 -462 0 -3 -124 -6 -276 -6
-217 0 -275 3 -271 13 2 6 64 221 137 477 73 256 135 469 138 475 7 12 -1 38
146 -497z"/>
<path d="M9540 4805 l0 -1705 518 2 517 3 3 1703 2 1702 -520 0 -520 0 0
-1705z"/>
<path d="M10990 4805 l0 -1705 415 0 415 0 0 894 c0 948 -2 993 -49 1206 -11
47 -18 86 -17 87 1 2 18 -32 36 -75 44 -102 176 -365 239 -477 27 -49 267
-437 533 -862 l483 -772 423 -1 422 0 0 1705 0 1705 -420 0 -420 0 0 -643 c0
-721 10 -912 66 -1219 4 -18 -30 39 -74 127 -109 218 -159 299 -650 1067
l-427 668 -487 0 -488 0 0 -1705z"/>
<path d="M14300 4810 l0 -1700 1190 0 1190 0 0 415 0 415 -675 0 -675 0 0
1285 0 1285 -515 0 -515 0 0 -1700z"/>
<path d="M16860 4810 l0 -1700 515 0 515 0 0 1700 0 1700 -515 0 -515 0 0
-1700z"/>
<path d="M21610 4810 l0 -1700 515 0 515 0 0 660 0 660 405 0 405 0 0 -660 0
-660 515 0 515 0 0 1700 0 1700 -515 0 -515 0 0 -630 0 -630 -405 0 -405 0 0
630 0 630 -515 0 -515 0 0 -1700z"/>
<path d="M24600 6105 l0 -405 355 0 355 0 0 -1295 0 -1295 490 0 490 0 0 1295
0 1295 350 0 350 0 0 405 0 405 -1195 0 -1195 0 0 -405z"/>
<path d="M7907 2409 c-69 -16 -147 -60 -208 -116 -69 -64 -103 -118 -130 -204
-18 -57 -19 -106 -19 -874 0 -770 1 -816 19 -874 50 -160 195 -289 360 -321
75 -14 11067 -14 11142 0 190 36 349 200 379 390 13 87 13 1523 0 1610 -29
183 -169 339 -345 385 -53 13 -653 15 -5610 14 -3225 -1 -5566 -5 -5588 -10z
m6271 -429 c118 -22 214 -97 253 -198 18 -45 23 -84 27 -189 l4 -133 -126 0
-126 0 0 110 c0 160 -28 200 -141 200 -44 0 -55 -4 -84 -33 -45 -45 -47 -75
-43 -572 3 -374 5 -413 21 -443 24 -43 77 -66 134 -58 95 13 107 35 113 216
l5 145 124 3 123 3 -4 -163 c-6 -198 -17 -237 -98 -319 -79 -81 -140 -103
-290 -103 -97 0 -124 4 -174 23 -80 32 -156 107 -187 186 l-24 60 0 500 0 500
24 59 c28 69 88 139 146 169 83 43 214 58 323 37z m-2158 -120 l0 -110 -135 0
-135 0 0 -645 0 -645 -130 0 -130 0 0 645 0 645 -135 0 -135 0 0 110 0 110
400 0 400 0 0 -110z m1168 3 l-3 -108 -222 -3 -223 -2 0 -205 0 -205 175 0
175 0 0 -110 0 -110 -175 0 -175 0 0 -220 0 -220 223 -2 222 -3 3 -107 3 -108
-361 0 -360 0 0 755 0 755 360 0 361 0 -3 -107z m2042 -213 l0 -320 145 0 145
0 0 320 0 320 135 0 135 0 0 -755 0 -755 -135 0 -135 0 0 325 0 325 -145 0
-145 0 0 -325 0 -325 -135 0 -135 0 0 755 0 755 135 0 135 0 0 -320z"/>
</g>
</svg>
