<?xml version="1.0" encoding="UTF-8" standalone="no"?>
<svg
   xmlns:dc="http://purl.org/dc/elements/1.1/"
   xmlns:cc="http://creativecommons.org/ns#"
   xmlns:rdf="http://www.w3.org/1999/02/22-rdf-syntax-ns#"
   xmlns:svg="http://www.w3.org/2000/svg"
   xmlns="http://www.w3.org/2000/svg"
   xmlns:sodipodi="http://sodipodi.sourceforge.net/DTD/sodipodi-0.dtd"
   xmlns:inkscape="http://www.inkscape.org/namespaces/inkscape"
   width="630"
   height="179"
   viewBox="0 0 166.6875 47.360419"
   version="1.1"
   id="svg8"
   inkscape:version="1.0.1 (3bc2e813f5, 2020-09-07)"
   sodipodi:docname="PMAC - CODE.svg">
  <defs
     id="defs2" />
  <sodipodi:namedview
     id="base"
     pagecolor="#ffffff"
     bordercolor="#666666"
     borderopacity="1.0"
     inkscape:pageopacity="0.0"
     inkscape:pageshadow="2"
     inkscape:zoom="0.98994949"
     inkscape:cx="318.78406"
     inkscape:cy="162.40122"
     inkscape:document-units="mm"
     inkscape:current-layer="layer1"
     inkscape:document-rotation="0"
     showgrid="false"
     inkscape:window-width="1366"
     inkscape:window-height="768"
     inkscape:window-x="1600"
     inkscape:window-y="0"
     inkscape:window-maximized="0"
     units="px" />
  <metadata
     id="metadata5">
    <rdf:RDF>
      <cc:Work
         rdf:about="">
        <dc:format>image/svg+xml</dc:format>
        <dc:type
           rdf:resource="http://purl.org/dc/dcmitype/StillImage" />
        <dc:title></dc:title>
      </cc:Work>
    </rdf:RDF>
  </metadata>
  <g
     inkscape:label="Layer 1"
     inkscape:groupmode="layer"
     id="layer1">
    <g
       id="g1156"
       transform="translate(-9.6226453,-115.10005)">
      <g
         id="g2172"
         transform="matrix(0.28840707,0,0,-0.28840707,57.420254,122.37278)">
        <path
           d="m 0,0 c -1.218,0 -2.341,0.222 -3.369,0.665 -1.028,0.442 -1.918,1.047 -2.669,1.814 -0.751,0.768 -1.34,1.673 -1.767,2.717 -0.427,1.044 -0.641,2.159 -0.641,3.345 v 0.048 c 0,1.186 0.21,2.297 0.629,3.333 0.419,1.036 1.008,1.946 1.767,2.728 0.759,0.784 1.661,1.401 2.705,1.851 1.044,0.451 2.198,0.677 3.464,0.677 0.759,0 1.451,-0.064 2.076,-0.189 C 2.819,16.864 3.393,16.687 3.915,16.46 4.437,16.232 4.919,15.962 5.362,15.648 5.805,15.335 6.224,14.99 6.62,14.614 L 4.745,12.456 c -0.664,0.617 -1.368,1.115 -2.111,1.495 -0.744,0.379 -1.59,0.57 -2.539,0.57 -0.791,0 -1.522,-0.156 -2.195,-0.464 -0.672,-0.31 -1.249,-0.73 -1.732,-1.26 C -4.314,12.266 -4.694,11.644 -4.97,10.931 -5.247,10.217 -5.385,9.456 -5.385,8.648 V 8.601 c 0,-0.809 0.134,-1.574 0.403,-2.294 0.269,-0.721 0.649,-1.348 1.139,-1.878 0.49,-0.532 1.071,-0.951 1.743,-1.26 0.673,-0.31 1.404,-0.464 2.195,-0.464 1.012,0 1.882,0.19 2.61,0.569 0.727,0.38 1.447,0.902 2.159,1.567 L 6.738,2.942 C 6.311,2.483 5.864,2.076 5.397,1.721 4.931,1.364 4.429,1.057 3.891,0.795 3.353,0.534 2.764,0.336 2.124,0.202 1.483,0.068 0.775,0 0,0"
           style="fill:#656263;fill-opacity:1;fill-rule:nonzero;stroke:none"
           id="path2174" />
      </g>
      <g
         id="g2176"
         transform="matrix(0.28840707,0,0,-0.28840707,63.503278,121.59261)">
        <path
           d="M 0,0 C 0.822,0 1.578,0.154 2.266,0.464 2.954,0.772 3.543,1.188 4.033,1.712 4.523,2.234 4.907,2.853 5.184,3.565 5.46,4.279 5.599,5.04 5.599,5.849 V 5.896 C 5.599,6.704 5.46,7.469 5.184,8.189 4.907,8.911 4.52,9.537 4.021,10.067 3.523,10.599 2.926,11.022 2.23,11.34 c -0.696,0.316 -1.455,0.475 -2.277,0.475 -0.823,0 -1.578,-0.155 -2.266,-0.463 -0.688,-0.31 -1.278,-0.73 -1.768,-1.26 C -4.571,9.561 -4.955,8.938 -5.231,8.226 -5.508,7.512 -5.646,6.751 -5.646,5.943 V 5.896 c 0,-0.809 0.138,-1.57 0.415,-2.283 C -4.955,2.9 -4.567,2.274 -4.069,1.735 -3.571,1.196 -2.974,0.772 -2.278,0.464 -1.582,0.154 -0.823,0 0,0 m -0.047,-2.705 c -1.282,0 -2.453,0.226 -3.512,0.677 -1.06,0.45 -1.969,1.063 -2.728,1.839 -0.759,0.774 -1.353,1.679 -1.779,2.715 -0.428,1.037 -0.641,2.14 -0.641,3.31 v 0.048 c 0,1.17 0.213,2.273 0.641,3.309 0.426,1.036 1.027,1.946 1.802,2.729 0.775,0.783 1.693,1.403 2.753,1.862 1.059,0.459 2.23,0.689 3.511,0.689 1.281,0 2.452,-0.226 3.511,-0.677 C 4.571,13.346 5.48,12.732 6.24,11.957 6.999,11.183 7.592,10.276 8.019,9.241 8.446,8.205 8.66,7.102 8.66,5.932 V 5.884 C 8.66,4.713 8.446,3.61 8.019,2.574 7.592,1.538 6.991,0.629 6.216,-0.154 5.441,-0.937 4.523,-1.558 3.464,-2.017 2.404,-2.476 1.234,-2.705 -0.047,-2.705"
           style="fill:#656263;fill-opacity:1;fill-rule:nonzero;stroke:none"
           id="path2178" />
      </g>
      <g
         id="g2180"
         transform="matrix(0.28840707,0,0,-0.28840707,70.277182,121.59261)">
        <path
           d="M 0,0 C 0.822,0 1.578,0.154 2.266,0.464 2.954,0.772 3.543,1.188 4.033,1.712 4.523,2.234 4.907,2.853 5.184,3.565 5.46,4.279 5.599,5.04 5.599,5.849 V 5.896 C 5.599,6.704 5.46,7.469 5.184,8.189 4.907,8.911 4.52,9.537 4.021,10.067 3.523,10.599 2.926,11.022 2.23,11.34 c -0.696,0.316 -1.455,0.475 -2.277,0.475 -0.823,0 -1.578,-0.155 -2.266,-0.463 -0.688,-0.31 -1.278,-0.73 -1.768,-1.26 C -4.571,9.561 -4.955,8.938 -5.231,8.226 -5.508,7.512 -5.646,6.751 -5.646,5.943 V 5.896 c 0,-0.809 0.138,-1.57 0.415,-2.283 C -4.955,2.9 -4.567,2.274 -4.069,1.735 -3.571,1.196 -2.974,0.772 -2.278,0.464 -1.582,0.154 -0.823,0 0,0 m -0.047,-2.705 c -1.282,0 -2.453,0.226 -3.512,0.677 -1.06,0.45 -1.969,1.063 -2.728,1.839 -0.759,0.774 -1.353,1.679 -1.779,2.715 -0.428,1.037 -0.641,2.14 -0.641,3.31 v 0.048 c 0,1.17 0.213,2.273 0.641,3.309 0.426,1.036 1.027,1.946 1.802,2.729 0.775,0.783 1.693,1.403 2.753,1.862 1.059,0.459 2.23,0.689 3.511,0.689 1.281,0 2.452,-0.226 3.511,-0.677 C 4.571,13.346 5.48,12.732 6.24,11.957 6.999,11.183 7.592,10.276 8.019,9.241 8.446,8.205 8.66,7.102 8.66,5.932 V 5.884 C 8.66,4.713 8.446,3.61 8.019,2.574 7.592,1.538 6.991,0.629 6.216,-0.154 5.441,-0.937 4.523,-1.558 3.464,-2.017 2.404,-2.476 1.234,-2.705 -0.047,-2.705"
           style="fill:#656263;fill-opacity:1;fill-rule:nonzero;stroke:none"
           id="path2182" />
      </g>
      <g
         id="g2184"
         transform="matrix(0.28840707,0,0,-0.28840707,76.825349,119.87512)">
        <path
           d="m 0,0 c 1.044,0 1.875,0.249 2.491,0.747 0.617,0.498 0.926,1.175 0.926,2.028 v 0.048 c 0,0.902 -0.301,1.586 -0.902,2.052 -0.601,0.467 -1.447,0.7 -2.538,0.7 H -4.271 V 0 Z M -7.188,8.232 H 0.214 C 1.258,8.232 2.183,8.086 2.99,7.794 3.796,7.501 4.468,7.094 5.006,6.572 5.449,6.113 5.789,5.583 6.026,4.982 6.264,4.381 6.382,3.717 6.382,2.989 V 2.941 C 6.382,1.581 6.015,0.486 5.279,-0.344 4.543,-1.175 3.598,-1.756 2.444,-2.088 L 6.928,-8.375 H 3.464 l -4.081,5.789 h -3.654 v -5.789 h -2.917 z"
           style="fill:#656263;fill-opacity:1;fill-rule:nonzero;stroke:none"
           id="path2186" />
      </g>
      <g
         id="g2188"
         transform="matrix(0.28840707,0,0,-0.28840707,81.498726,118.26719)">
        <path
           d="m 0,0 v -11.293 h 3.274 c 0.87,0 1.661,0.139 2.373,0.415 0.711,0.276 1.316,0.664 1.815,1.163 0.498,0.498 0.885,1.091 1.163,1.779 0.276,0.688 0.415,1.435 0.415,2.242 v 0.048 c 0,0.806 -0.139,1.557 -0.415,2.253 C 8.347,-2.696 7.96,-2.1 7.462,-1.602 6.963,-1.104 6.358,-0.712 5.647,-0.427 4.935,-0.143 4.144,0 3.274,0 Z m -2.918,2.657 h 6.192 c 1.297,0 2.487,-0.21 3.571,-0.629 1.083,-0.419 2.016,-1 2.8,-1.743 0.782,-0.744 1.387,-1.618 1.814,-2.622 0.428,-1.005 0.641,-2.092 0.641,-3.262 v -0.047 c 0,-1.171 -0.213,-2.262 -0.641,-3.275 -0.427,-1.012 -1.032,-1.89 -1.814,-2.633 -0.784,-0.744 -1.717,-1.329 -2.8,-1.756 -1.084,-0.426 -2.274,-0.64 -3.571,-0.64 h -6.192 z"
           style="fill:#656263;fill-opacity:1;fill-rule:nonzero;stroke:none"
           id="path2190" />
      </g>
      <g
         id="g2192"
         transform="matrix(0.28840707,0,0,-0.28840707,86.965943,117.50084)">
        <path
           d="M 0,0 H 12.313 V -2.609 H 2.918 v -4.319 h 8.328 V -9.537 H 2.918 v -4.461 h 9.514 v -2.609 H 0 Z"
           style="fill:#656263;fill-opacity:1;fill-rule:nonzero;stroke:none"
           id="path2194" />
      </g>
      <g
         id="g2196"
         transform="matrix(0.28840707,0,0,-0.28840707,92.50832,117.50084)">
        <path
           d="m 0,0 h 2.705 l 8.897,-11.482 V 0 h 2.87 V -16.607 H 12.029 L 2.871,-4.792 V -16.607 H 0 Z"
           style="fill:#656263;fill-opacity:1;fill-rule:nonzero;stroke:none"
           id="path2198" />
      </g>
      <g
         id="g2200"
         transform="matrix(0.28840707,0,0,-0.28840707,101.77299,120.38828)">
        <path
           d="M 0,0 -2.871,6.643 -5.718,0 Z m -4.176,10.131 h 2.705 L 5.836,-6.596 H 2.752 l -1.685,4.01 h -7.853 l -1.708,-4.01 h -2.989 z"
           style="fill:#656263;fill-opacity:1;fill-rule:nonzero;stroke:none"
           id="path2202" />
      </g>
      <g
         id="g2204"
         transform="matrix(0.28840707,0,0,-0.28840707,106.07683,118.26719)">
        <path
           d="m 0,0 v -11.293 h 3.274 c 0.87,0 1.661,0.139 2.373,0.415 0.711,0.276 1.316,0.664 1.815,1.163 0.498,0.498 0.885,1.091 1.163,1.779 0.276,0.688 0.415,1.435 0.415,2.242 v 0.048 c 0,0.806 -0.139,1.557 -0.415,2.253 C 8.347,-2.696 7.96,-2.1 7.462,-1.602 6.963,-1.104 6.358,-0.712 5.647,-0.427 4.935,-0.143 4.144,0 3.274,0 Z m -2.918,2.657 h 6.192 c 1.297,0 2.487,-0.21 3.571,-0.629 1.083,-0.419 2.016,-1 2.8,-1.743 0.782,-0.744 1.387,-1.618 1.814,-2.622 0.428,-1.005 0.641,-2.092 0.641,-3.262 v -0.047 c 0,-1.171 -0.213,-2.262 -0.641,-3.275 -0.427,-1.012 -1.032,-1.89 -1.814,-2.633 -0.784,-0.744 -1.717,-1.329 -2.8,-1.756 -1.084,-0.426 -2.274,-0.64 -3.571,-0.64 h -6.192 z"
           style="fill:#656263;fill-opacity:1;fill-rule:nonzero;stroke:none"
           id="path2206" />
      </g>
      <g
         id="g2208"
         transform="matrix(0.28840707,0,0,-0.28840707,113.84315,121.59261)">
        <path
           d="M 0,0 C 0.822,0 1.578,0.154 2.266,0.464 2.954,0.772 3.543,1.188 4.033,1.712 4.523,2.234 4.907,2.853 5.184,3.565 5.46,4.279 5.599,5.04 5.599,5.849 V 5.896 C 5.599,6.704 5.46,7.469 5.184,8.189 4.907,8.911 4.52,9.537 4.021,10.067 3.523,10.599 2.926,11.022 2.23,11.34 c -0.696,0.316 -1.455,0.475 -2.277,0.475 -0.823,0 -1.578,-0.155 -2.266,-0.463 -0.688,-0.31 -1.278,-0.73 -1.768,-1.26 C -4.571,9.561 -4.955,8.938 -5.231,8.226 -5.508,7.512 -5.646,6.751 -5.646,5.943 V 5.896 c 0,-0.809 0.138,-1.57 0.415,-2.283 C -4.955,2.9 -4.567,2.274 -4.069,1.735 -3.571,1.196 -2.974,0.772 -2.278,0.464 -1.582,0.154 -0.823,0 0,0 m -0.047,-2.705 c -1.282,0 -2.453,0.226 -3.512,0.677 -1.06,0.45 -1.969,1.063 -2.728,1.839 -0.759,0.774 -1.353,1.679 -1.779,2.715 -0.428,1.037 -0.641,2.14 -0.641,3.31 v 0.048 c 0,1.17 0.213,2.273 0.641,3.309 0.426,1.036 1.027,1.946 1.802,2.729 0.775,0.783 1.693,1.403 2.753,1.862 1.059,0.459 2.23,0.689 3.511,0.689 1.281,0 2.452,-0.226 3.511,-0.677 C 4.571,13.346 5.48,12.732 6.24,11.957 6.999,11.183 7.592,10.276 8.019,9.241 8.446,8.205 8.66,7.102 8.66,5.932 V 5.884 C 8.66,4.713 8.446,3.61 8.019,2.574 7.592,1.538 6.991,0.629 6.216,-0.154 5.441,-0.937 4.523,-1.558 3.464,-2.017 2.404,-2.476 1.234,-2.705 -0.047,-2.705"
           style="fill:#656263;fill-opacity:1;fill-rule:nonzero;stroke:none"
           id="path2210" />
      </g>
      <g
         id="g2212"
         transform="matrix(0.28840707,0,0,-0.28840707,120.39117,119.87512)">
        <path
           d="m 0,0 c 1.044,0 1.875,0.249 2.491,0.747 0.617,0.498 0.926,1.175 0.926,2.028 v 0.048 c 0,0.902 -0.301,1.586 -0.902,2.052 -0.601,0.467 -1.447,0.7 -2.538,0.7 H -4.271 V 0 Z M -7.188,8.232 H 0.214 C 1.258,8.232 2.183,8.086 2.99,7.794 3.796,7.501 4.468,7.094 5.006,6.572 5.449,6.113 5.789,5.583 6.026,4.982 6.264,4.381 6.382,3.717 6.382,2.989 V 2.941 C 6.382,1.581 6.015,0.486 5.279,-0.344 4.543,-1.175 3.598,-1.756 2.444,-2.088 L 6.928,-8.375 H 3.464 l -4.081,5.789 h -3.654 v -5.789 h -2.917 z"
           style="fill:#656263;fill-opacity:1;fill-rule:nonzero;stroke:none"
           id="path2214" />
      </g>
      <path
         d="m 124.27085,117.50075 h 0.84157 v 4.78958 h -0.84157 z"
         style="fill:#656263;fill-opacity:1;fill-rule:nonzero;stroke:none;stroke-width:0.288406"
         id="path2216" />
      <g
         id="g2218"
         transform="matrix(0.28840707,0,0,-0.28840707,130.2512,120.38828)">
        <path
           d="M 0,0 -2.871,6.643 -5.718,0 Z m -4.176,10.131 h 2.705 L 5.836,-6.596 H 2.752 l -1.685,4.01 h -7.853 l -1.708,-4.01 h -2.989 z"
           style="fill:#656263;fill-opacity:1;fill-rule:nonzero;stroke:none"
           id="path2220" />
      </g>
      <g
         id="g2222"
         transform="matrix(0.28840707,0,0,-0.28840707,137.56561,118.26719)">
        <path
           d="m 0,0 v -11.293 h 3.274 c 0.87,0 1.661,0.139 2.373,0.415 0.711,0.276 1.316,0.664 1.815,1.163 0.498,0.498 0.885,1.091 1.163,1.779 0.276,0.688 0.415,1.435 0.415,2.242 v 0.048 c 0,0.806 -0.139,1.557 -0.415,2.253 C 8.347,-2.696 7.96,-2.1 7.462,-1.602 6.963,-1.104 6.358,-0.712 5.647,-0.427 4.935,-0.143 4.144,0 3.274,0 Z m -2.918,2.657 h 6.192 c 1.297,0 2.487,-0.21 3.571,-0.629 1.083,-0.419 2.016,-1 2.8,-1.743 0.782,-0.744 1.387,-1.618 1.814,-2.622 0.428,-1.005 0.641,-2.092 0.641,-3.262 v -0.047 c 0,-1.171 -0.213,-2.262 -0.641,-3.275 -0.427,-1.012 -1.032,-1.89 -1.814,-2.633 -0.784,-0.744 -1.717,-1.329 -2.8,-1.756 -1.084,-0.426 -2.274,-0.64 -3.571,-0.64 h -6.192 z"
           style="fill:#656263;fill-opacity:1;fill-rule:nonzero;stroke:none"
           id="path2224" />
      </g>
      <g
         id="g2226"
         transform="matrix(0.28840707,0,0,-0.28840707,143.03265,117.50084)">
        <path
           d="M 0,0 H 12.313 V -2.609 H 2.918 v -4.319 h 8.328 V -9.537 H 2.918 v -4.461 h 9.514 v -2.609 H 0 Z"
           style="fill:#656263;fill-opacity:1;fill-rule:nonzero;stroke:none"
           id="path2228" />
      </g>
      <g
         id="g2230"
         transform="matrix(0.28840707,0,0,-0.28840707,59.378567,135.32488)">
        <path
           d="m 0,0 c 1.414,0 2.696,0.266 3.845,0.796 1.149,0.53 2.13,1.246 2.944,2.148 0.813,0.902 1.449,1.953 1.909,3.156 0.46,1.202 0.69,2.474 0.69,3.819 v 0.105 c 0,1.344 -0.23,2.626 -0.69,3.846 -0.46,1.22 -1.105,2.289 -1.935,3.209 -0.832,0.919 -1.83,1.644 -2.997,2.174 -1.167,0.531 -2.458,0.796 -3.872,0.796 -1.415,0 -2.705,-0.265 -3.872,-0.796 -1.167,-0.53 -2.157,-1.246 -2.97,-2.148 -0.814,-0.902 -1.45,-1.954 -1.909,-3.156 -0.46,-1.202 -0.69,-2.475 -0.69,-3.818 v -0.107 c 0,-1.343 0.23,-2.617 0.69,-3.818 C -8.398,5.003 -7.744,3.942 -6.895,3.023 -6.046,2.104 -5.039,1.37 -3.872,0.822 -2.705,0.273 -1.415,0 0,0 m -0.106,-9.281 c -2.864,0 -5.516,0.504 -7.956,1.511 -2.439,1.007 -4.544,2.377 -6.312,4.111 -1.768,1.731 -3.155,3.765 -4.163,6.099 -1.008,2.333 -1.512,4.827 -1.512,7.479 v 0.105 c 0,2.653 0.504,5.154 1.512,7.505 1.008,2.352 2.413,4.403 4.217,6.153 1.803,1.751 3.924,3.13 6.364,4.137 2.44,1.008 5.092,1.512 7.956,1.512 2.864,0 5.516,-0.504 7.956,-1.512 2.44,-1.007 4.543,-2.379 6.312,-4.11 1.767,-1.733 3.155,-3.767 4.163,-6.1 1.008,-2.334 1.512,-4.827 1.512,-7.478 V 10.024 C 19.943,7.373 19.439,4.871 18.431,2.52 17.423,0.168 16.018,-1.883 14.214,-3.633 12.411,-5.383 10.29,-6.763 7.85,-7.77 5.41,-8.777 2.758,-9.281 -0.106,-9.281"
           style="fill:#de1e26;fill-opacity:1;fill-rule:nonzero;stroke:none"
           id="path2232" />
      </g>
      <g
         id="g2234"
         transform="matrix(0.28840707,0,0,-0.28840707,71.600653,132.21946)">
        <path
           d="M 0,0 C 1.732,0 3.084,0.397 4.058,1.193 5.03,1.988 5.516,3.058 5.516,4.401 V 4.508 C 5.516,5.993 5.012,7.106 4.004,7.85 2.997,8.592 1.644,8.963 -0.053,8.963 H -6.842 V 0 Z M -17.131,17.82 H 0.424 c 2.865,0 5.286,-0.353 7.267,-1.06 1.979,-0.708 3.588,-1.68 4.826,-2.917 2.192,-2.194 3.289,-5.074 3.289,-8.646 V 5.091 c 0,-2.863 -0.69,-5.242 -2.069,-7.133 -1.379,-1.893 -3.235,-3.334 -5.569,-4.323 l 8.857,-12.942 H 5.198 l -7.479,11.244 h -4.561 v -11.244 h -10.289 z"
           style="fill:#de1e26;fill-opacity:1;fill-rule:nonzero;stroke:none"
           id="path2236" />
      </g>
      <g
         id="g2238"
         transform="matrix(0.28840707,0,0,-0.28840707,83.11891,138.00167)">
        <path
           d="m 0,0 c -2.899,0 -5.578,0.469 -8.035,1.405 -2.458,0.937 -4.588,2.254 -6.391,3.951 -1.804,1.698 -3.209,3.721 -4.217,6.074 -1.008,2.35 -1.512,4.94 -1.512,7.77 v 0.106 c 0,2.686 0.504,5.206 1.512,7.558 1.008,2.351 2.395,4.402 4.164,6.153 1.767,1.75 3.872,3.12 6.311,4.11 2.44,0.989 5.092,1.485 7.956,1.485 3.289,0 6.126,-0.469 8.513,-1.406 2.387,-0.936 4.57,-2.254 6.55,-3.951 L 8.805,25.936 C 7.46,27.067 6.1,27.933 4.721,28.534 c -1.379,0.602 -3.006,0.903 -4.88,0.903 -1.344,0 -2.591,-0.266 -3.739,-0.796 C -5.048,28.11 -6.046,27.395 -6.895,26.492 -7.744,25.591 -8.416,24.521 -8.91,23.284 -9.406,22.046 -9.653,20.72 -9.653,19.306 V 19.2 c 0,-1.521 0.247,-2.909 0.743,-4.164 0.494,-1.256 1.193,-2.343 2.095,-3.262 0.901,-0.92 1.962,-1.635 3.182,-2.148 1.22,-0.513 2.572,-0.769 4.057,-0.769 1.273,0 2.395,0.132 3.368,0.398 0.973,0.266 1.83,0.644 2.573,1.141 v 4.507 h -7.266 v 7.533 H 16.124 V 5.781 C 14.144,4.118 11.819,2.739 9.149,1.644 6.479,0.548 3.43,0 0,0"
           style="fill:#de1e26;fill-opacity:1;fill-rule:nonzero;stroke:none"
           id="path2240" />
      </g>
      <g
         id="g2242"
         transform="matrix(0.28840707,0,0,-0.28840707,95.723626,133.55052)">
        <path
           d="M 0,0 -4.137,10.502 -8.327,0 Z M -9.017,22.701 H 0.901 L 16.707,-14.691 H 5.675 l -2.652,6.682 h -14.374 l -2.651,-6.682 H -24.77 Z"
           style="fill:#de1e26;fill-opacity:1;fill-rule:nonzero;stroke:none"
           id="path2244" />
      </g>
      <g
         id="g2246"
         transform="matrix(0.28840707,0,0,-0.28840707,101.58218,127.07993)">
        <path
           d="M 0,0 H 9.6 L 24.875,-19.624 V 0 H 35.059 V -37.127 H 26.095 L 10.183,-16.76 V -37.127 H 0 Z"
           style="fill:#de1e26;fill-opacity:1;fill-rule:nonzero;stroke:none"
           id="path2248" />
      </g>
      <path
         d="m 113.66641,127.0799 h 2.96771 v 10.70769 h -2.96771 z"
         style="fill:#de1e26;fill-opacity:1;fill-rule:nonzero;stroke:none;stroke-width:0.288406"
         id="path2250" />
      <g
         id="g2252"
         transform="matrix(0.28840707,0,0,-0.28840707,118.27077,135.63076)">
        <path
           d="M 0,0 18.616,21.003 H 0.636 v 8.645 H 32.778 V 22.224 L 14.161,1.22 H 32.778 V -7.479 H 0 Z"
           style="fill:#de1e26;fill-opacity:1;fill-rule:nonzero;stroke:none"
           id="path2254" />
      </g>
      <g
         id="g2256"
         transform="matrix(0.28840707,0,0,-0.28840707,135.57139,133.55052)">
        <path
           d="M 0,0 -4.137,10.502 -8.327,0 Z M -9.017,22.701 H 0.901 L 16.707,-14.691 H 5.675 l -2.652,6.682 h -14.374 l -2.651,-6.682 H -24.77 Z"
           style="fill:#de1e26;fill-opacity:1;fill-rule:nonzero;stroke:none"
           id="path2258" />
      </g>
      <g
         id="g2260"
         transform="matrix(0.28840707,0,0,-0.28840707,143.99983,139.45495)">
        <path
           d="m 0,0 4.137,5.622 c -2.051,0.53 -3.951,1.353 -5.701,2.467 -1.751,1.113 -3.262,2.483 -4.535,4.11 -1.273,1.626 -2.263,3.455 -2.97,5.489 -0.708,2.034 -1.061,4.217 -1.061,6.551 v 0.106 c 0,2.686 0.485,5.206 1.458,7.558 0.972,2.351 2.334,4.402 4.085,6.153 1.75,1.75 3.809,3.12 6.178,4.11 2.369,0.989 4.968,1.485 7.797,1.485 1.909,0 3.642,-0.185 5.198,-0.557 1.556,-0.371 2.978,-0.902 4.269,-1.591 1.291,-0.69 2.458,-1.503 3.501,-2.44 1.042,-0.937 1.971,-1.971 2.785,-3.103 l -7.744,-5.993 c -1.061,1.307 -2.228,2.36 -3.501,3.156 -1.272,0.795 -2.811,1.193 -4.614,1.193 -1.308,0 -2.502,-0.256 -3.58,-0.769 C 4.623,33.034 3.695,32.327 2.917,31.426 2.139,30.523 1.529,29.472 1.087,28.27 0.645,27.067 0.424,25.794 0.424,24.451 v -0.106 c 0,-1.379 0.221,-2.679 0.663,-3.899 0.442,-1.219 1.052,-2.272 1.83,-3.155 0.778,-0.885 1.706,-1.583 2.785,-2.096 1.078,-0.512 2.272,-0.768 3.58,-0.768 0.955,0 1.83,0.105 2.625,0.318 0.796,0.212 1.52,0.521 2.175,0.928 0.654,0.406 1.273,0.884 1.856,1.432 0.584,0.548 1.158,1.158 1.724,1.83 l 7.744,-5.516 C 24.592,12.287 23.708,11.253 22.754,10.316 21.799,9.379 20.738,8.548 19.572,7.823 18.405,7.098 17.105,6.506 15.673,6.047 14.241,5.587 12.658,5.286 10.926,5.145 l -2.97,-8.54 z"
           style="fill:#de1e26;fill-opacity:1;fill-rule:nonzero;stroke:none"
           id="path2262" />
      </g>
      <g
         id="g2264"
         transform="matrix(0.28840707,0,0,-0.28840707,158.82239,133.55052)">
        <path
           d="M 0,0 -4.137,10.502 -8.327,0 Z m 1.007,25.512 c -0.883,0 -1.785,0.124 -2.704,0.372 -0.92,0.246 -1.822,0.512 -2.705,0.795 -0.708,0.247 -1.345,0.459 -1.91,0.636 -0.566,0.177 -1.043,0.266 -1.432,0.266 -0.742,0 -1.308,-0.204 -1.697,-0.61 -0.39,-0.408 -0.761,-1.034 -1.114,-1.883 l -4.826,1.326 c 0.6,2.651 1.405,4.632 2.413,5.94 1.008,1.308 2.43,1.962 4.269,1.962 0.884,0 1.785,-0.132 2.705,-0.397 0.919,-0.266 1.804,-0.54 2.652,-0.822 0.707,-0.248 1.353,-0.451 1.936,-0.611 0.584,-0.159 1.07,-0.238 1.459,-0.238 0.742,0 1.3,0.203 1.671,0.61 0.371,0.406 0.733,1.016 1.087,1.83 L 7.637,33.362 C 7.071,30.71 6.276,28.738 5.25,27.448 4.225,26.157 2.811,25.512 1.007,25.512 M -9.017,22.701 H 0.901 L 16.707,-14.691 H 5.675 l -2.652,6.682 h -14.374 l -2.651,-6.682 H -24.77 Z"
           style="fill:#de1e26;fill-opacity:1;fill-rule:nonzero;stroke:none"
           id="path2266" />
      </g>
      <g
         id="g2268"
         transform="matrix(0.28840707,0,0,-0.28840707,169.42302,135.32488)">
        <path
           d="m 0,0 c 1.414,0 2.696,0.266 3.845,0.796 1.149,0.53 2.13,1.246 2.944,2.148 0.813,0.902 1.449,1.953 1.909,3.156 0.46,1.202 0.69,2.474 0.69,3.819 v 0.105 c 0,1.344 -0.23,2.626 -0.69,3.846 -0.46,1.22 -1.105,2.289 -1.935,3.209 -0.832,0.919 -1.83,1.644 -2.997,2.174 -1.167,0.531 -2.458,0.796 -3.872,0.796 -1.415,0 -2.705,-0.265 -3.872,-0.796 -1.167,-0.53 -2.157,-1.246 -2.97,-2.148 -0.814,-0.902 -1.45,-1.954 -1.909,-3.156 -0.46,-1.202 -0.69,-2.475 -0.69,-3.818 v -0.107 c 0,-1.343 0.23,-2.617 0.69,-3.818 C -8.398,5.003 -7.744,3.942 -6.895,3.023 -6.046,2.104 -5.039,1.37 -3.872,0.822 -2.705,0.273 -1.415,0 0,0 m -0.106,-9.281 c -2.864,0 -5.516,0.504 -7.956,1.511 -2.439,1.007 -4.544,2.377 -6.312,4.111 -1.768,1.731 -3.155,3.765 -4.163,6.099 -1.008,2.333 -1.512,4.827 -1.512,7.479 v 0.105 c 0,2.653 0.504,5.154 1.512,7.505 1.008,2.352 2.413,4.403 4.217,6.153 1.803,1.751 3.924,3.13 6.364,4.137 2.44,1.008 5.092,1.512 7.956,1.512 2.864,0 5.516,-0.504 7.956,-1.512 2.44,-1.007 4.543,-2.379 6.312,-4.11 1.767,-1.733 3.155,-3.767 4.163,-6.1 1.008,-2.334 1.512,-4.827 1.512,-7.478 V 10.024 C 19.943,7.373 19.439,4.871 18.431,2.52 17.423,0.168 16.018,-1.883 14.214,-3.633 12.411,-5.383 10.29,-6.763 7.85,-7.77 5.41,-8.777 2.758,-9.281 -0.106,-9.281"
           style="fill:#de1e26;fill-opacity:1;fill-rule:nonzero;stroke:none"
           id="path2270" />
      </g>
      <g
         id="g2272"
         transform="matrix(0.28840707,0,0,-0.28840707,55.201596,142.69025)">
        <path
           d="M 0,0 H 16.933 V -3.589 H 4.013 v -5.937 h 11.451 v -3.589 H 4.013 v -6.134 h 13.083 v -3.589 H 0 Z"
           style="fill:#656263;fill-opacity:1;fill-rule:nonzero;stroke:none"
           id="path2274" />
      </g>
      <g
         id="g2276"
         transform="matrix(0.28840707,0,0,-0.28840707,65.485933,143.74417)">
        <path
           d="m 0,0 v -15.529 h 4.502 c 1.196,0 2.284,0.189 3.263,0.57 0.979,0.381 1.811,0.914 2.496,1.599 0.685,0.685 1.218,1.501 1.598,2.447 0.381,0.946 0.572,1.974 0.572,3.083 v 0.065 c 0,1.11 -0.191,2.143 -0.572,3.1 -0.38,0.957 -0.913,1.778 -1.598,2.463 C 9.576,-1.517 8.744,-0.979 7.765,-0.587 6.786,-0.195 5.698,0 4.502,0 Z m -4.013,3.654 h 8.515 c 1.784,0 3.42,-0.288 4.911,-0.864 1.489,-0.577 2.773,-1.376 3.85,-2.398 1.076,-1.023 1.908,-2.224 2.495,-3.605 0.588,-1.382 0.881,-2.877 0.881,-4.486 v -0.066 c 0,-1.609 -0.293,-3.11 -0.881,-4.502 -0.587,-1.392 -1.419,-2.599 -2.495,-3.622 -1.077,-1.022 -2.361,-1.827 -3.85,-2.414 -1.491,-0.587 -3.127,-0.881 -4.911,-0.881 h -8.515 z"
           style="fill:#656263;fill-opacity:1;fill-rule:nonzero;stroke:none"
           id="path2278" />
      </g>
      <g
         id="g2280"
         transform="matrix(0.28840707,0,0,-0.28840707,71.686829,142.69025)">
        <path
           d="M 0,0 H 16.933 V -3.589 H 4.013 v -5.937 h 11.451 v -3.589 H 4.013 v -6.134 h 13.083 v -3.589 H 0 Z"
           style="fill:#656263;fill-opacity:1;fill-rule:nonzero;stroke:none"
           id="path2282" />
      </g>
      <g
         id="g2284"
         transform="matrix(0.28840707,0,0,-0.28840707,80.29653,149.37094)">
        <path
           d="m 0,0 c -1.762,0 -3.448,0.299 -5.057,0.897 -1.61,0.598 -3.099,1.517 -4.47,2.757 l 2.415,2.871 c 1.109,-0.958 2.235,-1.691 3.376,-2.202 1.142,-0.511 2.42,-0.767 3.834,-0.767 1.239,0 2.223,0.266 2.952,0.799 0.729,0.533 1.094,1.224 1.094,2.072 V 6.492 C 4.144,6.905 4.073,7.27 3.931,7.585 3.79,7.9 3.529,8.199 3.148,8.482 2.768,8.765 2.246,9.026 1.583,9.266 0.918,9.505 0.054,9.744 -1.011,9.983 c -1.219,0.283 -2.301,0.604 -3.247,0.963 -0.946,0.359 -1.74,0.793 -2.381,1.305 -0.642,0.511 -1.132,1.136 -1.468,1.876 -0.338,0.739 -0.506,1.631 -0.506,2.675 v 0.065 c 0,0.98 0.196,1.876 0.587,2.693 0.392,0.815 0.93,1.51 1.615,2.087 0.685,0.577 1.506,1.028 2.463,1.354 0.957,0.326 2.001,0.489 3.132,0.489 1.675,0 3.181,-0.244 4.519,-0.733 1.338,-0.49 2.594,-1.202 3.768,-2.138 L 5.318,17.585 c -1.044,0.762 -2.077,1.343 -3.099,1.746 -1.023,0.402 -2.056,0.604 -3.1,0.604 -1.175,0 -2.088,-0.262 -2.741,-0.784 C -4.274,18.629 -4.6,17.987 -4.6,17.227 v -0.066 c 0,-0.435 0.076,-0.821 0.228,-1.158 0.152,-0.338 0.435,-0.642 0.849,-0.914 0.412,-0.272 0.967,-0.527 1.663,-0.767 0.696,-0.239 1.599,-0.489 2.708,-0.75 C 2.044,13.268 3.1,12.931 4.013,12.561 4.926,12.19 5.693,11.739 6.313,11.207 6.933,10.674 7.395,10.054 7.7,9.348 8.004,8.641 8.156,7.819 8.156,6.884 V 6.818 C 8.156,5.753 7.955,4.796 7.553,3.947 7.15,3.1 6.59,2.382 5.873,1.794 5.155,1.207 4.295,0.761 3.295,0.457 2.294,0.152 1.196,0 0,0"
           style="fill:#656263;fill-opacity:1;fill-rule:nonzero;stroke:none"
           id="path2286" />
      </g>
      <g
         id="g2288"
         transform="matrix(0.28840707,0,0,-0.28840707,84.01329,142.69025)">
        <path
           d="M 0,0 H 16.933 V -3.589 H 4.013 v -5.937 h 11.451 v -3.589 H 4.013 v -6.134 h 13.083 v -3.589 H 0 Z"
           style="fill:#656263;fill-opacity:1;fill-rule:nonzero;stroke:none"
           id="path2290" />
      </g>
      <g
         id="g2292"
         transform="matrix(0.28840707,0,0,-0.28840707,90.317666,142.69025)">
        <path
           d="M 0,0 H 3.719 L 15.954,-15.791 V 0 h 3.947 v -22.838 h -3.36 L 3.948,-6.59 V -22.838 H 0 Z"
           style="fill:#656263;fill-opacity:1;fill-rule:nonzero;stroke:none"
           id="path2294" />
      </g>
      <g
         id="g2296"
         transform="matrix(0.28840707,0,0,-0.28840707,97.186629,142.69025)">
        <path
           d="M 0,0 H 4.437 L 11.321,-17.553 18.172,0 h 4.34 L 13.05,-23.001 H 9.494 Z"
           style="fill:#656263;fill-opacity:1;fill-rule:nonzero;stroke:none"
           id="path2298" />
      </g>
      <g
         id="g2300"
         transform="matrix(0.28840707,0,0,-0.28840707,107.55579,148.31701)">
        <path
           d="M 0,0 C 1.131,0 2.17,0.212 3.116,0.637 4.062,1.062 4.872,1.634 5.546,2.354 6.221,3.072 6.748,3.923 7.129,4.903 7.509,5.884 7.7,6.93 7.7,8.042 v 0.065 c 0,1.112 -0.191,2.164 -0.571,3.155 -0.381,0.991 -0.914,1.852 -1.599,2.583 -0.685,0.729 -1.506,1.312 -2.463,1.749 -0.957,0.435 -2.002,0.653 -3.132,0.653 -1.131,0 -2.17,-0.212 -3.116,-0.638 -0.946,-0.424 -1.756,-1.003 -2.43,-1.732 C -6.286,13.146 -6.813,12.291 -7.194,11.311 -7.575,10.33 -7.765,9.284 -7.765,8.173 V 8.107 c 0,-1.112 0.19,-2.158 0.571,-3.138 C -6.813,3.987 -6.28,3.127 -5.595,2.386 -4.91,1.645 -4.089,1.062 -3.132,0.637 -2.175,0.212 -1.131,0 0,0 m -0.065,-3.72 c -1.762,0 -3.372,0.31 -4.829,0.93 -1.457,0.62 -2.708,1.463 -3.752,2.528 -1.044,1.066 -1.859,2.312 -2.447,3.737 -0.587,1.423 -0.881,2.941 -0.881,4.55 v 0.066 c 0,1.609 0.294,3.127 0.881,4.552 0.588,1.423 1.414,2.674 2.48,3.752 1.065,1.076 2.327,1.929 3.784,2.56 1.457,0.631 3.067,0.946 4.829,0.946 1.762,0 3.371,-0.309 4.829,-0.929 1.457,-0.62 2.708,-1.463 3.752,-2.529 1.044,-1.066 1.859,-2.311 2.447,-3.736 0.587,-1.425 0.881,-2.941 0.881,-4.551 V 8.091 C 11.909,6.481 11.615,4.964 11.028,3.54 10.44,2.115 9.614,0.864 8.548,-0.212 7.482,-1.289 6.221,-2.143 4.764,-2.773 3.306,-3.404 1.697,-3.72 -0.065,-3.72"
           style="fill:#656263;fill-opacity:1;fill-rule:nonzero;stroke:none"
           id="path2302" />
      </g>
      <g
         id="g2304"
         transform="matrix(0.28840707,0,0,-0.28840707,112.39237,142.69025)">
        <path
           d="m 0,0 h 4.013 v -19.184 h 12.006 v -3.654 H 0 Z"
           style="fill:#656263;fill-opacity:1;fill-rule:nonzero;stroke:none"
           id="path2306" />
      </g>
      <g
         id="g2308"
         transform="matrix(0.28840707,0,0,-0.28840707,116.57018,142.69025)">
        <path
           d="M 0,0 H 4.437 L 11.321,-17.553 18.172,0 h 4.34 L 13.05,-23.001 H 9.494 Z"
           style="fill:#656263;fill-opacity:1;fill-rule:nonzero;stroke:none"
           id="path2310" />
      </g>
      <path
         d="m 124.25758,142.69022 h 1.15738 v 6.58664 h -1.15738 z"
         style="fill:#656263;fill-opacity:1;fill-rule:nonzero;stroke:none;stroke-width:0.288406"
         id="path2312" />
      <g
         id="g2314"
         transform="matrix(0.28840707,0,0,-0.28840707,127.1745,142.69025)">
        <path
           d="M 0,0 H 4.274 L 11.223,-10.799 18.172,0 h 4.274 V -22.838 H 18.434 V -6.46 l -7.211,-10.767 h -0.13 L 3.948,-6.525 V -22.838 H 0 Z"
           style="fill:#656263;fill-opacity:1;fill-rule:nonzero;stroke:none"
           id="path2316" />
      </g>
      <g
         id="g2318"
         transform="matrix(0.28840707,0,0,-0.28840707,135.34199,142.69025)">
        <path
           d="M 0,0 H 16.933 V -3.589 H 4.013 v -5.937 h 11.451 v -3.589 H 4.013 v -6.134 h 13.083 v -3.589 H 0 Z"
           style="fill:#656263;fill-opacity:1;fill-rule:nonzero;stroke:none"
           id="path2320" />
      </g>
      <g
         id="g2322"
         transform="matrix(0.28840707,0,0,-0.28840707,141.64625,142.69025)">
        <path
           d="M 0,0 H 3.719 L 15.954,-15.791 V 0 h 3.947 v -22.838 h -3.36 L 3.948,-6.59 V -22.838 H 0 Z"
           style="fill:#656263;fill-opacity:1;fill-rule:nonzero;stroke:none"
           id="path2324-0" />
      </g>
      <g
         id="g2326"
         transform="matrix(0.28840707,0,0,-0.28840707,150.69811,143.76277)">
        <path
           d="M 0,0 H -7.243 V 3.719 H 11.289 V 0 H 4.046 V -19.119 H 0 Z"
           style="fill:#656263;fill-opacity:1;fill-rule:nonzero;stroke:none"
           id="path2328" />
      </g>
      <g
         id="g2330"
         transform="matrix(0.28840707,0,0,-0.28840707,157.98111,148.31701)">
        <path
           d="M 0,0 C 1.131,0 2.17,0.212 3.116,0.637 4.062,1.062 4.872,1.634 5.546,2.354 6.221,3.072 6.748,3.923 7.129,4.903 7.509,5.884 7.7,6.93 7.7,8.042 v 0.065 c 0,1.112 -0.191,2.164 -0.571,3.155 -0.381,0.991 -0.914,1.852 -1.599,2.583 -0.685,0.729 -1.506,1.312 -2.463,1.749 -0.957,0.435 -2.002,0.653 -3.132,0.653 -1.131,0 -2.17,-0.212 -3.116,-0.638 -0.946,-0.424 -1.756,-1.003 -2.43,-1.732 C -6.286,13.146 -6.813,12.291 -7.194,11.311 -7.575,10.33 -7.765,9.284 -7.765,8.173 V 8.107 c 0,-1.112 0.19,-2.158 0.571,-3.138 C -6.813,3.987 -6.28,3.127 -5.595,2.386 -4.91,1.645 -4.089,1.062 -3.132,0.637 -2.175,0.212 -1.131,0 0,0 m -0.065,-3.72 c -1.762,0 -3.372,0.31 -4.829,0.93 -1.457,0.62 -2.708,1.463 -3.752,2.528 -1.044,1.066 -1.859,2.312 -2.447,3.737 -0.587,1.423 -0.881,2.941 -0.881,4.55 v 0.066 c 0,1.609 0.294,3.127 0.881,4.552 0.588,1.423 1.414,2.674 2.48,3.752 1.065,1.076 2.327,1.929 3.784,2.56 1.457,0.631 3.067,0.946 4.829,0.946 1.762,0 3.371,-0.309 4.829,-0.929 1.457,-0.62 2.708,-1.463 3.752,-2.529 1.044,-1.066 1.859,-2.311 2.447,-3.736 0.587,-1.425 0.881,-2.941 0.881,-4.551 V 8.091 C 11.909,6.481 11.615,4.964 11.028,3.54 10.44,2.115 9.614,0.864 8.548,-0.212 7.482,-1.289 6.221,-2.143 4.764,-2.773 3.306,-3.404 1.697,-3.72 -0.065,-3.72"
           style="fill:#656263;fill-opacity:1;fill-rule:nonzero;stroke:none"
           id="path2332" />
      </g>
      <g
         id="g2334"
         transform="matrix(0.28840707,0,0,-0.28840707,55.201596,153.98179)">
        <path
           d="M 0,0 H 16.933 V -3.589 H 4.013 v -5.937 h 11.451 v -3.589 H 4.013 v -6.134 h 13.083 v -3.589 H 0 Z"
           style="fill:#656263;fill-opacity:1;fill-rule:nonzero;stroke:none"
           id="path2336" />
      </g>
      <g
         id="g2338"
         transform="matrix(0.28840707,0,0,-0.28840707,63.811268,160.66244)">
        <path
           d="m 0,0 c -1.762,0 -3.448,0.299 -5.057,0.897 -1.61,0.598 -3.099,1.517 -4.47,2.757 l 2.415,2.871 c 1.109,-0.958 2.235,-1.691 3.376,-2.202 1.142,-0.511 2.42,-0.767 3.834,-0.767 1.239,0 2.223,0.266 2.952,0.799 0.729,0.533 1.094,1.224 1.094,2.072 V 6.492 C 4.144,6.905 4.073,7.27 3.931,7.585 3.79,7.9 3.529,8.199 3.148,8.482 2.768,8.765 2.246,9.026 1.583,9.266 0.918,9.505 0.054,9.744 -1.011,9.983 c -1.219,0.283 -2.301,0.604 -3.247,0.963 -0.946,0.359 -1.74,0.793 -2.381,1.305 -0.642,0.511 -1.132,1.136 -1.468,1.876 -0.338,0.739 -0.506,1.631 -0.506,2.675 v 0.065 c 0,0.98 0.196,1.876 0.587,2.693 0.392,0.815 0.93,1.51 1.615,2.087 0.685,0.577 1.506,1.028 2.463,1.354 0.957,0.326 2.001,0.489 3.132,0.489 1.675,0 3.181,-0.244 4.519,-0.733 1.338,-0.49 2.594,-1.202 3.768,-2.138 L 5.318,17.585 c -1.044,0.762 -2.077,1.343 -3.099,1.746 -1.023,0.402 -2.056,0.604 -3.1,0.604 -1.175,0 -2.088,-0.262 -2.741,-0.784 C -4.274,18.629 -4.6,17.987 -4.6,17.227 v -0.066 c 0,-0.435 0.076,-0.821 0.228,-1.158 0.152,-0.338 0.435,-0.642 0.849,-0.914 0.412,-0.272 0.967,-0.527 1.663,-0.767 0.696,-0.239 1.599,-0.489 2.708,-0.75 C 2.044,13.268 3.1,12.931 4.013,12.561 4.926,12.19 5.693,11.739 6.313,11.207 6.933,10.674 7.395,10.054 7.7,9.348 8.004,8.641 8.156,7.819 8.156,6.884 V 6.818 C 8.156,5.753 7.955,4.796 7.553,3.947 7.15,3.1 6.59,2.382 5.873,1.794 5.155,1.207 4.295,0.761 3.295,0.457 2.294,0.152 1.196,0 0,0"
           style="fill:#656263;fill-opacity:1;fill-rule:nonzero;stroke:none"
           id="path2340" />
      </g>
      <g
         id="g2342"
         transform="matrix(0.28840707,0,0,-0.28840707,69.005278,155.05429)">
        <path
           d="M 0,0 H -7.243 V 3.719 H 11.289 V 0 H 4.046 V -19.119 H 0 Z"
           style="fill:#656263;fill-opacity:1;fill-rule:nonzero;stroke:none"
           id="path2344" />
      </g>
      <g
         id="g2346"
         transform="matrix(0.28840707,0,0,-0.28840707,76.335143,157.24693)">
        <path
           d="m 0,0 c 1.436,0 2.578,0.343 3.426,1.028 0.848,0.685 1.272,1.615 1.272,2.789 v 0.066 c 0,1.24 -0.413,2.18 -1.24,2.822 -0.826,0.642 -1.99,0.962 -3.49,0.962 H -5.873 V 0 Z M -9.885,11.321 H 0.294 c 1.435,0 2.708,-0.201 3.817,-0.603 C 5.22,10.315 6.145,9.756 6.884,9.038 7.493,8.406 7.961,7.678 8.287,6.852 8.613,6.024 8.776,5.111 8.776,4.111 V 4.046 C 8.776,2.175 8.271,0.669 7.259,-0.473 6.248,-1.614 4.948,-2.414 3.361,-2.871 l 6.166,-8.646 H 4.764 l -5.612,7.961 h -5.025 v -7.961 h -4.012 z"
           style="fill:#656263;fill-opacity:1;fill-rule:nonzero;stroke:none"
           id="path2348" />
      </g>
      <g
         id="g2350"
         transform="matrix(0.28840707,0,0,-0.28840707,84.276749,157.95246)">
        <path
           d="M 0,0 -3.948,9.135 -7.863,0 Z m -5.742,13.931 h 3.72 L 8.026,-9.07 H 3.785 L 1.468,-3.557 H -9.331 L -11.68,-9.07 h -4.111 z"
           style="fill:#656263;fill-opacity:1;fill-rule:nonzero;stroke:none"
           id="path2352-4" />
      </g>
      <g
         id="g2354"
         transform="matrix(0.28840707,0,0,-0.28840707,89.338957,155.05429)">
        <path
           d="M 0,0 H -7.243 V 3.719 H 11.289 V 0 H 4.046 V -19.119 H 0 Z"
           style="fill:#656263;fill-opacity:1;fill-rule:nonzero;stroke:none"
           id="path2356" />
      </g>
      <g
         id="g2358"
         transform="matrix(0.28840707,0,0,-0.28840707,96.866699,152.07164)">
        <path
           d="M 0,0 3.588,-1.565 -0.587,-4.73 H -3.654 Z M -10.571,-6.623 H 6.362 v -3.589 h -12.92 v -5.937 H 4.894 v -3.589 H -6.558 v -6.134 H 6.525 v -3.589 h -17.096 z"
           style="fill:#656263;fill-opacity:1;fill-rule:nonzero;stroke:none"
           id="path2360" />
      </g>
      <g
         id="g2362"
         transform="matrix(0.28840707,0,0,-0.28840707,103.24629,160.68134)">
        <path
           d="m 0,0 c -1.784,0 -3.404,0.3 -4.861,0.897 -1.458,0.598 -2.703,1.424 -3.736,2.48 -1.033,1.055 -1.833,2.294 -2.398,3.72 -0.566,1.424 -0.848,2.973 -0.848,4.648 v 0.066 c 0,1.587 0.288,3.099 0.864,4.535 0.577,1.435 1.387,2.691 2.431,3.768 1.044,1.076 2.289,1.93 3.736,2.561 1.446,0.631 3.028,0.946 4.747,0.946 1,0 1.908,-0.07 2.724,-0.211 C 3.475,23.271 4.23,23.071 4.927,22.812 5.623,22.554 6.28,22.236 6.9,21.858 7.521,21.481 8.124,21.045 8.711,20.549 L 6.167,17.521 c -0.436,0.369 -0.881,0.706 -1.338,1.01 -0.457,0.305 -0.936,0.56 -1.436,0.767 -0.5,0.207 -1.05,0.37 -1.647,0.49 -0.599,0.119 -1.257,0.179 -1.975,0.179 -1.043,0 -2.017,-0.218 -2.919,-0.654 -0.903,-0.436 -1.686,-1.019 -2.35,-1.749 -0.663,-0.73 -1.185,-1.585 -1.565,-2.566 -0.381,-0.981 -0.571,-2.016 -0.571,-3.105 v -0.066 c 0,-1.178 0.184,-2.267 0.554,-3.269 0.37,-1.003 0.897,-1.864 1.582,-2.582 0.686,-0.72 1.501,-1.287 2.448,-1.701 0.946,-0.414 2.006,-0.621 3.18,-0.621 1.088,0 2.105,0.158 3.051,0.473 0.946,0.315 1.767,0.734 2.464,1.257 v 4.273 h -5.841 v 3.491 H 9.527 V 3.557 C 8.961,3.077 8.336,2.621 7.651,2.186 6.966,1.751 6.226,1.37 5.432,1.044 4.638,0.718 3.785,0.462 2.871,0.277 1.958,0.093 1,0 0,0"
           style="fill:#656263;fill-opacity:1;fill-rule:nonzero;stroke:none"
           id="path2364" />
      </g>
      <path
         d="m 107.56516,153.98164 h 1.15738 v 6.58664 h -1.15738 z"
         style="fill:#656263;fill-opacity:1;fill-rule:nonzero;stroke:none;stroke-width:0.288406"
         id="path2366-7" />
      <g
         id="g2368"
         transform="matrix(0.28840707,0,0,-0.28840707,113.54009,160.68134)">
        <path
           d="m 0,0 c -1.675,0 -3.219,0.305 -4.633,0.914 -1.414,0.608 -2.638,1.44 -3.67,2.495 -1.033,1.055 -1.843,2.301 -2.431,3.737 -0.587,1.435 -0.881,2.968 -0.881,4.599 v 0.066 c 0,1.631 0.288,3.159 0.865,4.584 0.576,1.424 1.387,2.675 2.431,3.751 1.044,1.078 2.283,1.925 3.719,2.545 1.435,0.621 3.023,0.93 4.763,0.93 1.045,0 1.996,-0.087 2.855,-0.259 0.859,-0.173 1.648,-0.415 2.365,-0.727 0.718,-0.314 1.382,-0.685 1.991,-1.116 0.608,-0.431 1.185,-0.906 1.729,-1.422 L 6.525,17.129 c -0.913,0.848 -1.881,1.533 -2.903,2.055 -1.023,0.522 -2.186,0.783 -3.491,0.783 -1.088,0 -2.094,-0.212 -3.018,-0.638 -0.925,-0.425 -1.718,-1.003 -2.382,-1.732 -0.664,-0.731 -1.186,-1.586 -1.566,-2.567 -0.381,-0.98 -0.571,-2.026 -0.571,-3.137 v -0.066 c 0,-1.112 0.185,-2.164 0.555,-3.155 0.37,-0.991 0.892,-1.853 1.566,-2.582 0.674,-0.731 1.473,-1.308 2.398,-1.734 0.924,-0.424 1.93,-0.636 3.018,-0.636 1.391,0 2.588,0.26 3.589,0.783 1,0.521 1.989,1.239 2.968,2.152 L 9.266,4.046 C 8.679,3.415 8.064,2.854 7.422,2.365 6.781,1.876 6.09,1.452 5.351,1.093 4.611,0.734 3.801,0.462 2.92,0.277 2.039,0.093 1.065,0 0,0"
           style="fill:#656263;fill-opacity:1;fill-rule:nonzero;stroke:none"
           id="path2370" />
      </g>
      <g
         id="g2372"
         transform="matrix(0.28840707,0,0,-0.28840707,120.5876,159.60855)">
        <path
           d="M 0,0 C 1.131,0 2.17,0.212 3.116,0.637 4.062,1.062 4.872,1.634 5.546,2.354 6.221,3.072 6.748,3.923 7.129,4.903 7.509,5.884 7.7,6.93 7.7,8.042 v 0.065 c 0,1.112 -0.191,2.164 -0.571,3.155 -0.381,0.991 -0.914,1.852 -1.599,2.583 -0.685,0.729 -1.506,1.312 -2.463,1.749 -0.957,0.435 -2.002,0.653 -3.132,0.653 -1.131,0 -2.17,-0.212 -3.116,-0.638 -0.946,-0.424 -1.756,-1.003 -2.43,-1.732 C -6.286,13.146 -6.813,12.291 -7.194,11.311 -7.575,10.33 -7.765,9.284 -7.765,8.173 V 8.107 c 0,-1.112 0.19,-2.158 0.571,-3.138 C -6.813,3.987 -6.28,3.127 -5.595,2.386 -4.91,1.645 -4.089,1.062 -3.132,0.637 -2.175,0.212 -1.131,0 0,0 m -0.065,-3.72 c -1.762,0 -3.372,0.31 -4.829,0.93 -1.457,0.62 -2.708,1.463 -3.752,2.528 -1.044,1.066 -1.859,2.312 -2.447,3.737 -0.587,1.423 -0.881,2.941 -0.881,4.55 v 0.066 c 0,1.609 0.294,3.127 0.881,4.552 0.588,1.423 1.414,2.674 2.48,3.752 1.065,1.076 2.327,1.929 3.784,2.56 1.457,0.631 3.067,0.946 4.829,0.946 1.762,0 3.371,-0.309 4.829,-0.929 1.457,-0.62 2.708,-1.463 3.752,-2.529 1.044,-1.066 1.859,-2.311 2.447,-3.736 0.587,-1.425 0.881,-2.941 0.881,-4.551 V 8.091 C 11.909,6.481 11.615,4.964 11.028,3.54 10.44,2.115 9.614,0.864 8.548,-0.212 7.482,-1.289 6.221,-2.143 4.764,-2.773 3.306,-3.404 1.697,-3.72 -0.065,-3.72"
           style="fill:#656263;fill-opacity:1;fill-rule:nonzero;stroke:none"
           id="path2374" />
      </g>
      <g
         id="g1047"
         transform="matrix(1.4887826,0,0,1.4887826,-17.349652,-49.71088)">
        <g
           id="g2376"
           transform="matrix(0.28840707,0,0,-0.28840707,43.392538,123.01184)">
          <path
             d="m 0,0 c 0.038,0.682 -0.29,1.36 -0.919,1.729 l -16.322,11.365 c -0.898,0.525 -2.051,0.223 -2.575,-0.673 -0.526,-0.897 -0.225,-2.05 0.672,-2.575 L -4.291,-0.659 v -21.822 c 0,-0.689 -0.021,-1.373 -0.057,-2.052 h -21.168 c 0.024,-0.669 -0.015,-1.31 -0.109,-1.9 1.037,-1.037 1.68,-2.467 1.68,-4.046 v -2.405 c 0,-1.586 -0.593,-3.004 -1.603,-4.03 v -2.649 -0.787 c 0,-1.545 -1.253,-2.797 -2.799,-2.797 h -0.787 -13.423 V -60.68 c 0.022,0 0.044,-0.002 0.066,-0.002 -20.375,0 -37.073,16.036 -38.144,36.149 h 21.363 c 0.055,1.571 0.503,3.318 1.717,5.071 1.377,1.987 4.135,7.473 4.774,12.66 -1.44,1.04 -2.379,2.733 -2.379,4.641 v 0.267 c 0,0.755 0.147,1.477 0.414,2.137 -0.267,0.661 -0.414,1.382 -0.414,2.138 v 0.178 c 0,2.378 1.435,4.426 3.485,5.326 -0.073,1.893 -0.35,3.719 -0.81,5.467 h -13.856 l -0.037,-0.037 c -0.423,0.075 -0.872,0.013 -1.271,-0.221 L -83.971,1.729 c -0.254,-0.148 -0.454,-0.351 -0.607,-0.581 -0.259,-0.355 -0.416,-0.788 -0.416,-1.259 v -21.725 c 0,-23.323 18.521,-42.786 41.842,-43.143 23.737,-0.363 43.163,18.841 43.163,42.498 v 22.37 C 0.011,-0.073 0.002,-0.038 0,0"
             style="fill:#656263;fill-opacity:1;fill-rule:nonzero;stroke:none"
             id="path2378" />
        </g>
        <g
           id="g2380"
           transform="matrix(0.28840707,0,0,-0.28840707,28.620675,117.85656)">
          <path
             d="m 0,0 h 0.802 c 0.352,-0.559 0.702,-1.279 1.002,-2.21 0.233,-0.725 0.446,-1.496 0.631,-2.313 0.002,-0.012 0.004,-0.026 0.007,-0.038 0.08,-0.355 0.153,-0.721 0.221,-1.093 0.022,-0.118 0.041,-0.24 0.062,-0.36 0.048,-0.285 0.093,-0.576 0.134,-0.871 0.017,-0.125 0.036,-0.249 0.051,-0.375 0.052,-0.411 0.099,-0.827 0.134,-1.255 0,-0.006 10e-4,-0.014 10e-4,-0.014 0.035,-0.427 0.059,-0.86 0.076,-1.297 0.005,-0.133 0.008,-0.269 0.012,-0.403 0.009,-0.333 0.013,-0.669 0.011,-1.012 C 3.143,-11.38 3.143,-11.518 3.14,-11.658 3.132,-12.128 3.116,-12.604 3.086,-13.09 H 1.87 c -1.224,0 -2.226,-1.002 -2.226,-2.226 v -0.178 c 0,-1.181 0.957,-2.138 2.137,-2.138 -1.18,0 -2.137,-0.957 -2.137,-2.137 v -0.267 c 0,-1.181 0.957,-2.137 2.137,-2.137 h 0.37 c 0.158,-6.64 -3.521,-14.292 -5.539,-17.205 -0.163,-0.234 -0.297,-0.47 -0.418,-0.703 -0.03,-0.059 -0.058,-0.117 -0.086,-0.175 -0.099,-0.206 -0.184,-0.41 -0.255,-0.613 -0.009,-0.027 -0.02,-0.052 -0.028,-0.077 -0.167,-0.502 -0.253,-0.992 -0.282,-1.462 -0.11,-1.765 0.582,-3.23 0.907,-3.809 h -0.457 c -1.224,0 -2.226,-1.002 -2.226,-2.226 v -2.316 c 0,-0.995 0.801,-1.829 1.603,-2.066 v -1.814 c 0,-1.546 1.253,-2.799 2.798,-2.799 H 8.662 19.287 c 1.546,0 2.798,1.253 2.798,2.799 v 1.814 c 1.069,0.237 1.603,1.071 1.603,2.066 v 2.405 c 0,1.18 -0.957,2.137 -2.137,2.137 h -0.35 c 0.037,0.066 0.08,0.147 0.125,0.235 0.009,0.018 0.019,0.039 0.029,0.058 0.041,0.082 0.083,0.171 0.127,0.269 0.007,0.015 0.014,0.03 0.021,0.047 0.327,0.738 0.688,1.883 0.605,3.199 v 10e-4 c -0.059,0.953 -0.35,1.993 -1.068,3.03 -2.019,2.913 -5.742,10.566 -5.585,17.205 1.178,0.003 2.088,0.958 2.088,2.137 v 0.267 c 0,1.18 -0.957,2.137 -2.137,2.137 1.18,0 2.137,0.957 2.137,2.138 v 0.266 c 0,1.181 -0.957,2.138 -2.137,2.138 h -0.86 c -0.268,4.313 0.35,7.978 1.282,10.88 0.3,0.931 0.65,1.652 1.003,2.21 h 0.534 c 1.131,0 2.048,0.918 2.048,2.049 v 0.356 c 0,1.16 -0.925,2.103 -2.078,2.134 -0.57,3.537 -3.265,6.36 -6.737,7.119 v 3.303 h 1.754 c 0.801,0 1.451,0.649 1.451,1.451 v 1.105 c 0,0.801 -0.65,1.451 -1.451,1.451 h -1.754 v 1.755 c 0,0.801 -0.65,1.451 -1.452,1.451 H 8.042 C 7.24,22.174 6.59,21.524 6.59,20.723 V 18.968 H 4.836 c -0.802,0 -1.452,-0.65 -1.452,-1.451 v -1.105 c 0,-0.802 0.65,-1.451 1.452,-1.451 H 6.59 V 11.597 C 3.384,10.755 0.765,7.986 0.208,4.542 H 0 c -1.224,0 -2.226,-1.002 -2.226,-2.227 V 2.227 C -2.226,0.997 -1.229,0 0,0"
             style="fill:#656263;fill-opacity:1;fill-rule:nonzero;stroke:none"
             id="path2382" />
        </g>
      </g>
    </g>
  </g>
</svg>
