<?xml version="1.0" encoding="UTF-8" standalone="no"?>
<!DOCTYPE svg PUBLIC "-//W3C//DTD SVG 1.1//EN" "http://www.w3.org/Graphics/SVG/1.1/DTD/svg11.dtd">
<svg width="100%" height="100%" viewBox="0 0 1000 200" version="1.1" xmlns="http://www.w3.org/2000/svg" xmlns:xlink="http://www.w3.org/1999/xlink" xml:space="preserve" xmlns:serif="http://www.serif.com/" style="fill-rule:evenodd;clip-rule:evenodd;stroke-linejoin:round;stroke-miterlimit:2;">
    <g transform="matrix(1.04481,0,0,1.04481,-771.174,-704.106)">
        <g transform="matrix(2,0,0,2,907.041,850.477)">
            <path d="M0,-2.779C-5.81,-0.291 -11.298,2.058 -18.41,2.058C-25.522,2.058 -31.01,-0.291 -36.82,-2.779C-42.655,-5.277 -48.689,-7.861 -56.421,-7.861C-64.153,-7.861 -70.187,-5.277 -76.021,-2.779C-77.205,-2.272 -78.375,-1.778 -79.548,-1.301L-79.548,1.953C-77.944,1.328 -76.379,0.663 -74.832,0.001C-69.021,-2.487 -63.533,-4.837 -56.421,-4.837C-49.309,-4.837 -43.822,-2.487 -38.011,0.001C-32.176,2.498 -26.142,5.082 -18.41,5.082C-10.678,5.082 -4.645,2.498 1.19,0.001C4.665,-1.487 8.063,-2.859 11.724,-3.774L11.724,-6.868C7.502,-5.894 3.685,-4.357 0,-2.779" style="fill:rgb(109,110,113);fill-rule:nonzero;"/>
        </g>
        <g transform="matrix(2,0,0,2,907.041,815.643)">
            <path d="M0,-2.779C-5.81,-0.291 -11.298,2.059 -18.41,2.059C-25.522,2.059 -31.01,-0.291 -36.82,-2.779C-42.655,-5.277 -48.689,-7.861 -56.421,-7.861C-64.153,-7.861 -70.187,-5.277 -76.021,-2.779C-77.205,-2.272 -78.375,-1.778 -79.548,-1.301L-79.548,1.953C-77.944,1.328 -76.379,0.663 -74.832,0.001C-69.021,-2.487 -63.533,-4.837 -56.421,-4.837C-49.309,-4.837 -43.822,-2.487 -38.011,0.001C-32.176,2.499 -26.142,5.082 -18.41,5.082C-10.678,5.082 -4.645,2.499 1.19,0.001C4.665,-1.487 8.063,-2.858 11.724,-3.774L11.724,-6.868C7.502,-5.894 3.685,-4.357 0,-2.779" style="fill:rgb(109,110,113);fill-rule:nonzero;"/>
        </g>
        <g transform="matrix(2,0,0,2,907.041,780.809)">
            <path d="M0,-2.779C-5.81,-0.291 -11.298,2.058 -18.41,2.058C-25.522,2.058 -31.01,-0.292 -36.82,-2.779C-42.655,-5.278 -48.689,-7.861 -56.421,-7.861C-64.153,-7.861 -70.187,-5.278 -76.021,-2.779C-77.205,-2.272 -78.375,-1.778 -79.548,-1.301L-79.548,1.953C-77.944,1.328 -76.379,0.663 -74.832,0C-69.021,-2.487 -63.533,-4.837 -56.421,-4.837C-49.309,-4.837 -43.822,-2.487 -38.011,0C-32.176,2.499 -26.142,5.082 -18.41,5.082C-10.678,5.082 -4.645,2.499 1.19,0C4.665,-1.487 8.063,-2.858 11.724,-3.774L11.724,-6.867C7.502,-5.894 3.685,-4.357 0,-2.779" style="fill:rgb(222,32,39);fill-rule:nonzero;"/>
        </g>
        <g transform="matrix(2,0,0,2,768.241,680.316)">
            <path d="M0,21.821C-1.636,21.821 -3.202,21.543 -4.697,20.988C-6.193,20.432 -7.577,19.578 -8.85,18.427L-6.606,15.759C-5.576,16.649 -4.531,17.331 -3.47,17.805C-2.409,18.28 -1.223,18.518 0.091,18.518C1.243,18.518 2.157,18.27 2.834,17.775C3.511,17.28 3.85,16.638 3.85,15.851L3.85,15.79C3.85,15.406 3.784,15.068 3.652,14.775C3.521,14.482 3.278,14.204 2.925,13.941C2.571,13.679 2.086,13.436 1.47,13.214C0.854,12.992 0.051,12.77 -0.939,12.547C-2.071,12.285 -3.076,11.987 -3.955,11.653C-4.834,11.32 -5.571,10.916 -6.167,10.441C-6.764,9.966 -7.218,9.385 -7.531,8.698C-7.845,8.011 -8.001,7.182 -8.001,6.213L-8.001,6.152C-8.001,5.243 -7.819,4.409 -7.455,3.652C-7.092,2.894 -6.592,2.247 -5.955,1.712C-5.318,1.177 -4.556,0.757 -3.667,0.454C-2.778,0.151 -1.808,0 -0.757,0C0.798,0 2.198,0.227 3.44,0.681C4.683,1.136 5.85,1.798 6.941,2.667L4.94,5.485C3.971,4.778 3.011,4.238 2.062,3.864C1.111,3.49 0.152,3.303 -0.818,3.303C-1.909,3.303 -2.758,3.546 -3.364,4.03C-3.97,4.515 -4.273,5.112 -4.273,5.819L-4.273,5.879C-4.273,6.284 -4.203,6.642 -4.061,6.955C-3.92,7.269 -3.657,7.551 -3.273,7.804C-2.89,8.057 -2.374,8.294 -1.728,8.516C-1.081,8.738 -0.242,8.97 0.788,9.213C1.899,9.496 2.88,9.809 3.729,10.153C4.577,10.496 5.289,10.916 5.865,11.41C6.44,11.906 6.87,12.482 7.153,13.138C7.436,13.795 7.577,14.558 7.577,15.426L7.577,15.487C7.577,16.477 7.391,17.366 7.017,18.154C6.643,18.942 6.123,19.609 5.456,20.154C4.789,20.7 3.99,21.114 3.062,21.397C2.132,21.679 1.111,21.821 0,21.821" style="fill:rgb(109,110,113);fill-rule:nonzero;"/>
        </g>
        <g transform="matrix(2,0,0,2,800.671,723.353)">
            <path d="M0,-21.216L15.73,-21.216L15.73,-17.882L3.728,-17.882L3.728,-12.366L14.366,-12.366L14.366,-9.032L3.728,-9.032L3.728,-3.334L15.882,-3.334L15.882,0L0,0L0,-21.216Z" style="fill:rgb(109,110,113);fill-rule:nonzero;"/>
        </g>
        <g transform="matrix(2,0,0,2,869.471,680.194)">
            <path d="M0,21.943C-1.556,21.943 -2.991,21.66 -4.304,21.094C-5.618,20.529 -6.754,19.756 -7.713,18.776C-8.673,17.796 -9.426,16.639 -9.971,15.305C-10.517,13.972 -10.79,12.547 -10.79,11.032L-10.79,10.971C-10.79,9.456 -10.522,8.037 -9.987,6.713C-9.452,5.39 -8.699,4.228 -7.729,3.228C-6.759,2.228 -5.607,1.44 -4.273,0.863C-2.94,0.288 -1.465,0 0.151,0C1.122,0 2.005,0.08 2.803,0.24C3.601,0.401 4.334,0.626 5,0.916C5.667,1.207 6.284,1.552 6.85,1.953C7.415,2.354 7.951,2.794 8.456,3.274L6.062,6.031C5.213,5.243 4.314,4.607 3.364,4.122C2.414,3.637 1.333,3.394 0.121,3.394C-0.889,3.394 -1.824,3.592 -2.682,3.987C-3.542,4.381 -4.279,4.918 -4.895,5.596C-5.511,6.275 -5.997,7.069 -6.35,7.98C-6.704,8.891 -6.88,9.863 -6.88,10.896L-6.88,10.956C-6.88,11.989 -6.708,12.966 -6.365,13.887C-6.021,14.808 -5.537,15.608 -4.91,16.286C-4.284,16.964 -3.542,17.501 -2.682,17.896C-1.824,18.291 -0.889,18.488 0.121,18.488C1.414,18.488 2.525,18.245 3.455,17.76C4.384,17.276 5.304,16.609 6.213,15.76L8.607,18.185C8.062,18.771 7.491,19.291 6.895,19.745C6.299,20.2 5.657,20.594 4.97,20.927C4.283,21.261 3.531,21.514 2.712,21.685C1.894,21.857 0.99,21.943 0,21.943" style="fill:rgb(109,110,113);fill-rule:nonzero;"/>
        </g>
        <g transform="matrix(2,0,0,2,921.357,702.319)">
            <path d="M0,-0.182C1.333,-0.182 2.394,-0.5 3.182,-1.137C3.97,-1.773 4.364,-2.637 4.364,-3.728L4.364,-3.789C4.364,-4.94 3.98,-5.814 3.212,-6.411C2.444,-7.006 1.364,-7.305 -0.031,-7.305L-5.456,-7.305L-5.456,-0.182L0,-0.182ZM-9.183,-10.699L0.273,-10.699C1.606,-10.699 2.789,-10.512 3.819,-10.138C4.849,-9.764 5.708,-9.244 6.395,-8.578C6.96,-7.991 7.395,-7.314 7.698,-6.547C8.001,-5.779 8.153,-4.93 8.153,-4.001L8.153,-3.94C8.153,-2.203 7.683,-0.804 6.744,0.257C5.804,1.318 4.596,2.061 3.122,2.485L8.85,10.517L4.425,10.517L-0.788,3.121L-5.456,3.121L-5.456,10.517L-9.183,10.517L-9.183,-10.699Z" style="fill:rgb(109,110,113);fill-rule:nonzero;"/>
        </g>
        <g transform="matrix(2,0,0,2,955.302,723.353)">
            <path d="M0,-21.216L15.729,-21.216L15.729,-17.882L3.728,-17.882L3.728,-12.366L14.366,-12.366L14.366,-9.032L3.728,-9.032L3.728,-3.334L15.881,-3.334L15.881,0L0,0L0,-21.216Z" style="fill:rgb(109,110,113);fill-rule:nonzero;"/>
        </g>
        <g transform="matrix(2,0,0,2,1014.83,716.443)">
            <path d="M0,-14.306L-6.728,-14.306L-6.728,-17.761L10.487,-17.761L10.487,-14.306L3.758,-14.306L3.758,3.455L0,3.455L0,-14.306Z" style="fill:rgb(109,110,113);fill-rule:nonzero;"/>
        </g>
        <g transform="matrix(2,0,0,2,1077.87,697.471)">
            <path d="M0,4.515L-3.667,-3.971L-7.304,4.515L0,4.515ZM-5.334,-8.426L-1.879,-8.426L7.456,12.941L3.516,12.941L1.364,7.819L-8.668,7.819L-10.85,12.941L-14.669,12.941L-5.334,-8.426Z" style="fill:rgb(109,110,113);fill-rule:nonzero;"/>
        </g>
        <g transform="matrix(2,0,0,2,1126.91,702.319)">
            <path d="M0,-0.182C1.333,-0.182 2.394,-0.5 3.182,-1.137C3.97,-1.773 4.364,-2.637 4.364,-3.728L4.364,-3.789C4.364,-4.94 3.98,-5.814 3.212,-6.411C2.444,-7.006 1.363,-7.305 -0.031,-7.305L-5.456,-7.305L-5.456,-0.182L0,-0.182ZM-9.184,-10.699L0.272,-10.699C1.606,-10.699 2.788,-10.512 3.818,-10.138C4.849,-9.764 5.708,-9.244 6.395,-8.578C6.96,-7.991 7.395,-7.314 7.698,-6.547C8.001,-5.779 8.152,-4.93 8.152,-4.001L8.152,-3.94C8.152,-2.203 7.683,-0.804 6.743,0.257C5.804,1.318 4.596,2.061 3.121,2.485L8.85,10.517L4.425,10.517L-0.788,3.121L-5.456,3.121L-5.456,10.517L-9.184,10.517L-9.184,-10.699Z" style="fill:rgb(109,110,113);fill-rule:nonzero;"/>
        </g>
        <g transform="matrix(2,0,0,2,0,-458.27)">
            <rect x="580.637" y="569.595" width="3.728" height="21.216" style="fill:rgb(109,110,113);"/>
        </g>
        <g transform="matrix(2,0,0,2,1214.25,697.471)">
            <path d="M0,4.515L-3.667,-3.971L-7.304,4.515L0,4.515ZM-5.334,-8.426L-1.879,-8.426L7.456,12.941L3.516,12.941L1.364,7.819L-8.668,7.819L-10.851,12.941L-14.669,12.941L-5.334,-8.426Z" style="fill:rgb(109,110,113);fill-rule:nonzero;"/>
        </g>
        <g transform="matrix(2,0,0,2,1279.05,716.562)">
            <path d="M0,-14.426L0,0.001L4.183,0.001C5.293,0.001 6.304,-0.176 7.213,-0.53C8.123,-0.883 8.896,-1.378 9.532,-2.015C10.168,-2.651 10.663,-3.409 11.017,-4.288C11.37,-5.167 11.547,-6.121 11.547,-7.152L11.547,-7.213C11.547,-8.243 11.37,-9.202 11.017,-10.092C10.663,-10.981 10.168,-11.744 9.532,-12.38C8.896,-13.017 8.123,-13.517 7.213,-13.881C6.304,-14.244 5.293,-14.426 4.183,-14.426L0,-14.426ZM-3.728,-17.821L4.183,-17.821C5.839,-17.821 7.359,-17.552 8.744,-17.017C10.128,-16.482 11.32,-15.739 12.32,-14.79C13.32,-13.84 14.093,-12.723 14.639,-11.441C15.185,-10.157 15.457,-8.768 15.457,-7.273L15.457,-7.213C15.457,-5.717 15.185,-4.323 14.639,-3.03C14.093,-1.737 13.32,-0.615 12.32,0.334C11.32,1.284 10.128,2.032 8.744,2.577C7.359,3.122 5.839,3.395 4.183,3.395L-3.728,3.395L-3.728,-17.821Z" style="fill:rgb(109,110,113);fill-rule:nonzero;"/>
        </g>
        <g transform="matrix(2,0,0,2,1327.48,723.353)">
            <path d="M0,-21.216L15.73,-21.216L15.73,-17.882L3.728,-17.882L3.728,-12.366L14.366,-12.366L14.366,-9.032L3.728,-9.032L3.728,-3.334L15.882,-3.334L15.882,0L0,0L0,-21.216Z" style="fill:rgb(109,110,113);fill-rule:nonzero;"/>
        </g>
        <g transform="matrix(2,0,0,2,1025.62,763.883)">
            <path d="M0,49.326C-3.704,49.326 -7.126,48.727 -10.265,47.531C-13.405,46.334 -16.126,44.651 -18.43,42.483C-20.733,40.314 -22.529,37.729 -23.816,34.724C-25.103,31.721 -25.747,28.413 -25.747,24.799L-25.747,24.663C-25.747,21.231 -25.103,18.013 -23.816,15.008C-22.529,12.004 -20.757,9.384 -18.497,7.148C-16.239,4.912 -13.551,3.162 -10.435,1.897C-7.317,0.633 -3.93,0 -0.271,0C3.93,0 7.555,0.599 10.604,1.796C13.652,2.993 16.441,4.675 18.972,6.844L11.247,16.194C9.53,14.748 7.792,13.642 6.03,12.873C4.269,12.106 2.19,11.722 -0.203,11.722C-1.921,11.722 -3.513,12.06 -4.98,12.738C-6.448,13.416 -7.725,14.33 -8.809,15.482C-9.893,16.634 -10.751,18.001 -11.383,19.581C-12.016,21.163 -12.332,22.857 -12.332,24.663L-12.332,24.799C-12.332,26.741 -12.016,28.514 -11.383,30.118C-10.751,31.721 -9.858,33.11 -8.707,34.284C-7.555,35.459 -6.2,36.374 -4.642,37.028C-3.083,37.684 -1.355,38.011 0.542,38.011C2.168,38.011 3.602,37.842 4.845,37.503C6.086,37.164 7.182,36.679 8.131,36.046L8.131,30.287L-1.152,30.287L-1.152,20.665L20.598,20.665L20.598,41.941C18.067,44.064 15.098,45.826 11.688,47.225C8.276,48.625 4.381,49.326 0,49.326" style="fill:rgb(222,32,39);fill-rule:nonzero;"/>
        </g>
        <g transform="matrix(2,0,0,2,1129.55,787.596)">
            <path d="M0,25.612C1.807,25.612 3.444,25.274 4.913,24.596C6.38,23.918 7.633,23.004 8.673,21.852C9.712,20.7 10.524,19.357 11.112,17.82C11.699,16.285 11.993,14.659 11.993,12.942L11.993,12.806C11.993,11.091 11.699,9.452 11.112,7.894C10.524,6.336 9.7,4.97 8.639,3.795C7.577,2.621 6.302,1.695 4.811,1.017C3.32,0.34 1.671,0.001 -0.135,0.001C-1.942,0.001 -3.591,0.34 -5.081,1.017C-6.572,1.695 -7.837,2.609 -8.876,3.761C-9.915,4.913 -10.729,6.258 -11.314,7.793C-11.902,9.329 -12.195,10.955 -12.195,12.671L-12.195,12.806C-12.195,14.524 -11.902,16.15 -11.314,17.685C-10.729,19.221 -9.892,20.576 -8.808,21.75C-7.724,22.925 -6.437,23.862 -4.946,24.562C-3.455,25.263 -1.807,25.612 0,25.612M-0.135,37.469C-3.794,37.469 -7.182,36.826 -10.299,35.538C-13.415,34.251 -16.104,32.501 -18.361,30.287C-20.621,28.075 -22.393,25.477 -23.68,22.495C-24.968,19.514 -25.611,16.33 -25.611,12.942L-25.611,12.806C-25.611,9.419 -24.968,6.223 -23.68,3.219C-22.393,0.216 -20.598,-2.405 -18.294,-4.64C-15.99,-6.876 -13.28,-8.638 -10.163,-9.926C-7.046,-11.213 -3.658,-11.857 0,-11.857C3.659,-11.857 7.047,-11.213 10.164,-9.926C13.28,-8.638 15.967,-6.887 18.227,-4.675C20.484,-2.461 22.258,0.136 23.545,3.117C24.833,6.099 25.477,9.283 25.477,12.671L25.477,12.806C25.477,16.194 24.833,19.39 23.545,22.394C22.258,25.398 20.462,28.017 18.159,30.254C15.855,32.489 13.145,34.251 10.028,35.538C6.911,36.826 3.523,37.469 -0.135,37.469" style="fill:rgb(222,32,39);fill-rule:nonzero;"/>
        </g>
        <g transform="matrix(2,0,0,2,1180.51,861.316)">
            <path d="M0,-47.768L14.635,-47.768L25.408,-17.752L36.249,-47.768L50.613,-47.768L31.371,0L19.175,0L0,-47.768Z" style="fill:rgb(222,32,39);fill-rule:nonzero;"/>
        </g>
        <g transform="matrix(2,0,0,2,1290.95,860.638)">
            <path d="M0,-47.429L38.146,-47.429L38.146,-36.317L13.009,-36.317L13.009,-29.067L35.774,-29.067L35.774,-18.7L13.009,-18.7L13.009,-11.18L38.485,-11.18L38.485,0L0,0L0,-47.429Z" style="fill:rgb(222,32,39);fill-rule:nonzero;"/>
        </g>
        <g transform="matrix(2,0,0,2,1425.24,815.106)">
            <path d="M0,-1.897C2.212,-1.897 3.94,-2.405 5.183,-3.422C6.425,-4.438 7.046,-5.804 7.046,-7.521L7.046,-7.656C7.046,-9.554 6.403,-10.977 5.115,-11.925C3.828,-12.874 2.101,-13.348 -0.068,-13.348L-8.74,-13.348L-8.74,-1.897L0,-1.897ZM-21.885,-24.663L0.542,-24.663C4.201,-24.663 7.294,-24.211 9.824,-23.308C12.354,-22.404 14.408,-21.162 15.99,-19.582C18.79,-16.78 20.191,-13.099 20.191,-8.537L20.191,-8.402C20.191,-4.743 19.31,-1.705 17.549,0.711C15.787,3.128 13.416,4.969 10.435,6.233L21.749,22.766L6.64,22.766L-2.914,8.401L-8.74,8.401L-8.74,22.766L-21.885,22.766L-21.885,-24.663Z" style="fill:rgb(222,32,39);fill-rule:nonzero;"/>
        </g>
        <g transform="matrix(2,0,0,2,1478.9,860.638)">
            <path d="M0,-47.429L12.264,-47.429L31.777,-22.36L31.777,-47.429L44.786,-47.429L44.786,0L33.335,0L13.009,-26.018L13.009,0L0,0L0,-47.429Z" style="fill:rgb(222,32,39);fill-rule:nonzero;"/>
        </g>
        <g transform="matrix(2,0,0,2,1633.38,787.596)">
            <path d="M0,25.612C1.806,25.612 3.443,25.274 4.912,24.596C6.379,23.918 7.633,23.004 8.673,21.852C9.711,20.7 10.524,19.357 11.112,17.82C11.698,16.285 11.992,14.659 11.992,12.942L11.992,12.806C11.992,11.091 11.698,9.452 11.112,7.894C10.524,6.336 9.699,4.97 8.639,3.795C7.577,2.621 6.301,1.695 4.811,1.017C3.32,0.34 1.67,0.001 -0.136,0.001C-1.943,0.001 -3.591,0.34 -5.082,1.017C-6.572,1.695 -7.838,2.609 -8.876,3.761C-9.916,4.913 -10.729,6.258 -11.315,7.793C-11.903,9.329 -12.196,10.955 -12.196,12.671L-12.196,12.806C-12.196,14.524 -11.903,16.15 -11.315,17.685C-10.729,19.221 -9.893,20.576 -8.809,21.75C-7.725,22.925 -6.437,23.862 -4.946,24.562C-3.456,25.263 -1.808,25.612 0,25.612M-0.136,37.469C-3.794,37.469 -7.182,36.826 -10.299,35.538C-13.416,34.251 -16.104,32.501 -18.362,30.287C-20.621,28.075 -22.394,25.477 -23.681,22.495C-24.968,19.514 -25.611,16.33 -25.611,12.942L-25.611,12.806C-25.611,9.419 -24.968,6.223 -23.681,3.219C-22.394,0.216 -20.598,-2.405 -18.294,-4.64C-15.99,-6.876 -13.28,-8.638 -10.164,-9.926C-7.047,-11.213 -3.659,-11.857 0,-11.857C3.659,-11.857 7.046,-11.213 10.163,-9.926C13.28,-8.638 15.967,-6.887 18.226,-4.675C20.484,-2.461 22.258,0.136 23.545,3.117C24.832,6.099 25.476,9.283 25.476,12.671L25.476,12.806C25.476,16.194 24.832,19.39 23.545,22.394C22.258,25.398 20.462,28.017 18.158,30.254C15.854,32.489 13.145,34.251 10.027,35.538C6.911,36.826 3.523,37.469 -0.136,37.469" style="fill:rgb(222,32,39);fill-rule:nonzero;"/>
        </g>
    </g>
</svg>
